<svg width="24" height="24" viewBox="0 0 24 24" fill="none" xmlns="http://www.w3.org/2000/svg">
<g clip-path="url(#clip0_732_93293)">
<path d="M0 11.9994C0 13.4672 0.264047 14.8733 0.746391 16.1733L12 16.695L23.2536 16.1733C23.736 14.8733 24 13.4672 24 11.9994C24 10.5315 23.736 9.12546 23.2536 7.82548L12 7.30371L0.746391 7.82543C0.264047 9.12546 0 10.5315 0 11.9994Z" fill="#FFDA44"/>
<path d="M12.0036 -0.000976562C6.84403 -0.000976562 2.44552 3.25552 0.75 7.82513H23.2573C21.5617 3.25552 17.1632 -0.000976562 12.0036 -0.000976562Z" fill="#D80027"/>
<path d="M23.2572 16.1738H0.75C2.44552 20.7434 6.84403 23.9999 12.0036 23.9999C17.1632 23.9999 21.5617 20.7434 23.2572 16.1738Z" fill="#496E2D"/>
<path d="M11.998 7.82617L13.0339 11.0146H16.3868L13.6745 12.9854L14.7104 16.174L11.998 14.2033L9.28558 16.174L10.3217 12.9854L7.60938 11.0146H10.9621L11.998 7.82617Z" fill="black"/>
</g>
<defs>
<clipPath id="clip0_732_93293">
<rect width="24" height="24" fill="white"/>
</clipPath>
</defs>
</svg>
