<svg width="24" height="24" viewBox="0 0 24 24" fill="none" xmlns="http://www.w3.org/2000/svg">
<g clip-path="url(#clip0_732_93696)">
<path d="M24 12C24 18.6274 18.6274 24 12 24C5.37262 24 0 18.6274 0 12C0 12.0029 12 0.0013125 12 0C18.6274 0 24 5.37262 24 12Z" fill="#0052B4"/>
<path d="M11.9688 11.9999H12.0009C12.0009 11.9891 12.0009 11.9786 12.0009 11.9678C11.9902 11.9785 11.9795 11.9892 11.9688 11.9999Z" fill="white"/>
<path d="M12 6.26135C12 4.14986 12 2.76635 12 0.000488281H11.998C5.37145 0.00161328 0 5.37372 0 12.0005H6.26086V8.47497L9.78637 12.0005H11.9679C11.9786 11.9898 11.9893 11.9791 12 11.9684C12 11.1599 12 10.4386 12 9.78696L8.47443 6.26135H12Z" fill="white"/>
<path d="M6.06831 1.56543C4.19148 2.63413 2.63116 4.19441 1.5625 6.07124V12.0002H4.69295V4.69598V4.69588H11.9973C11.9973 3.70856 11.9973 2.76796 11.9973 1.56543H6.06831V1.56543Z" fill="#D80027"/>
<path d="M11.997 10.5242L7.73344 6.26074H6.25781V6.26084L11.9969 11.9998H11.997C11.997 11.9998 11.997 10.9823 11.997 10.5242Z" fill="#D80027"/>
<path d="M13.5625 6.26074V11.9998C13.5625 14.7955 17.2147 15.6521 17.2147 15.6521C17.2147 15.6521 20.8669 14.7955 20.8669 11.9998V6.26074H13.5625Z" fill="#338AF3"/>
<path d="M13.5625 11.999C13.5625 14.7947 17.2147 15.6513 17.2147 15.6513C17.2147 15.6513 20.8669 14.7947 20.8669 11.999H13.5625V11.999Z" fill="#A2001D"/>
<path d="M18.7789 8.86921H17.7354V7.82568H16.6919V8.86921H15.6484V9.91265H16.6919V13.0431H17.7354V9.91265H18.7789V8.86921Z" fill="black"/>
</g>
<defs>
<clipPath id="clip0_732_93696">
<rect width="24" height="24" fill="white"/>
</clipPath>
</defs>
</svg>
