<svg width="24" height="24" viewBox="0 0 24 24" fill="none" xmlns="http://www.w3.org/2000/svg">
<g clip-path="url(#clip0_732_93752)">
<path d="M24 12C24 18.6274 18.6274 24 12 24C5.37262 24 0 18.6274 0 12C0 12.0029 12 0.0013125 12 0C18.6274 0 24 5.37262 24 12Z" fill="#0052B4"/>
<path d="M11.9688 12.0009H12.0009C12.0009 11.9901 12.0009 11.9796 12.0009 11.9688C11.9902 11.9795 11.9795 11.9902 11.9688 12.0009Z" fill="white"/>
<path d="M12 6.26135C12 4.14986 12 2.76635 12 0.000488281H11.998C5.3715 0.00161328 0 5.37372 0 12.0005H6.26086V8.47497L9.78642 12.0005H11.9679C11.9786 11.9898 11.9894 11.9791 12 11.9684C12 11.1599 12 10.4386 12 9.78696L8.47443 6.26135H12Z" fill="white"/>
<path d="M6.06831 1.56494C4.19148 2.63364 2.6312 4.19393 1.5625 6.07075V11.9997H4.69295V4.69549V4.6954H11.9973C11.9973 3.70807 11.9973 2.76747 11.9973 1.56494H6.06831V1.56494Z" fill="#D80027"/>
<path d="M11.9969 10.5247L7.73348 6.26123C7.73348 6.26123 6.25781 6.26132 6.25781 6.26123V6.26132L11.9969 12.0003H11.9969C11.9969 12.0003 11.9969 10.9828 11.9969 10.5247Z" fill="#D80027"/>
<path d="M20.7769 8.90479L21.0359 9.70194H21.8741L21.196 10.1946L21.455 10.9917L20.7769 10.4991L20.0988 10.9917L20.3578 10.1946L19.6797 9.70194H20.5179L20.7769 8.90479Z" fill="#D80027"/>
<path d="M17.7786 14.6436L18.1671 15.8393H19.4244L18.4072 16.5783L18.7958 17.774L17.7786 17.035L16.7614 17.774L17.15 16.5783L16.1328 15.8393H17.39L17.7786 14.6436Z" fill="#D80027"/>
<path d="M17.8949 5.25195L18.2187 6.24847H19.2664L18.4187 6.86417L18.7425 7.86064L17.8949 7.24475L17.0473 7.86064L17.371 6.86417L16.5234 6.24847H17.5711L17.8949 5.25195Z" fill="#D80027"/>
<path d="M15.013 8.87012L15.4015 10.0659H16.6587L15.6416 10.8048L16.0302 12.0006L15.013 11.2616L13.9958 12.0006L14.3844 10.8048L13.3672 10.0659H14.6244L15.013 8.87012Z" fill="#D80027"/>
</g>
<defs>
<clipPath id="clip0_732_93752">
<rect width="24" height="24" fill="white"/>
</clipPath>
</defs>
</svg>
