<svg width="24" height="24" viewBox="0 0 24 24" fill="none" xmlns="http://www.w3.org/2000/svg">
<g clip-path="url(#clip0_732_92736)">
<path d="M24 12.0004C24 11.47 23.9651 10.9476 23.8984 10.4352H10.4347C7.98306 7.98377 3.51452 3.51551 3.5147 3.51514C-1.17157 8.20141 -1.17157 15.7994 3.5147 20.4857L10.4348 13.5657H23.8984C23.9651 13.0533 24 12.5309 24 12.0004Z" fill="black"/>
<path d="M23.9684 12.8633C23.966 12.897 23.9637 12.9308 23.9609 12.9644C23.9637 12.9308 23.966 12.897 23.9684 12.8633Z" fill="white"/>
<path d="M23.9297 10.6924C23.9341 10.7326 23.9385 10.7727 23.9425 10.813C23.9385 10.7726 23.9341 10.7326 23.9297 10.6924Z" fill="white"/>
<path d="M23.9609 11.0356C23.9637 11.0693 23.966 11.103 23.9684 11.1368C23.966 11.103 23.9637 11.0693 23.9609 11.0356Z" fill="white"/>
<path d="M23.8994 10.4342C23.9048 10.4754 23.9096 10.5167 23.9145 10.5579C23.2023 4.61031 18.1405 -0.000488281 12.001 -0.000488281C8.68724 -0.000488281 5.6872 1.34271 3.51562 3.51438L10.4355 10.4343H23.8994V10.4342Z" fill="#D80027"/>
<path d="M23.8994 13.5651H10.4355L3.51562 20.485C5.6872 22.6566 8.68724 23.9998 12.001 23.9998C18.1405 23.9998 23.2023 19.389 23.9145 13.4414C23.9096 13.4826 23.9047 13.524 23.8994 13.5651Z" fill="#6DA544"/>
<path d="M23.9425 13.188C23.9385 13.2283 23.9341 13.2684 23.9297 13.3086C23.9341 13.2684 23.9386 13.2283 23.9425 13.188Z" fill="white"/>
<path d="M23.9688 11.1372C23.9733 11.2014 23.9774 11.2657 23.981 11.3302C23.9774 11.2657 23.9733 11.2014 23.9688 11.1372Z" fill="black"/>
<path d="M23.9141 10.5586C23.9195 10.6031 23.9246 10.6477 23.9294 10.6924C23.9245 10.6477 23.9194 10.6032 23.9141 10.5586Z" fill="black"/>
<path d="M23.9375 10.8125C23.9448 10.887 23.9514 10.9618 23.9574 11.0368C23.9515 10.9618 23.9449 10.887 23.9375 10.8125Z" fill="black"/>
<path d="M23.981 12.6689C23.9774 12.7334 23.9733 12.7978 23.9688 12.862C23.9733 12.7978 23.9773 12.7334 23.981 12.6689Z" fill="black"/>
<path d="M23.9574 12.9639C23.9514 13.0388 23.9448 13.1136 23.9375 13.188C23.9449 13.1136 23.9515 13.0388 23.9574 12.9639Z" fill="black"/>
<path d="M23.9294 13.3081C23.9246 13.3528 23.9195 13.3974 23.9141 13.4419C23.9194 13.3974 23.9245 13.3528 23.9294 13.3081Z" fill="black"/>
<path d="M23.9844 11.3979C23.9886 11.4839 23.9918 11.5702 23.9942 11.6566C23.9918 11.5701 23.9886 11.4839 23.9844 11.3979Z" fill="black"/>
<path d="M23.9942 12.3418C23.9918 12.4282 23.9886 12.5145 23.9844 12.6005C23.9887 12.5145 23.9918 12.4282 23.9942 12.3418Z" fill="black"/>
<path d="M23.9853 11.4732H9.99059L2.802 4.28564C2.56964 4.53071 2.31778 4.87289 2.16202 5.1166L9.03664 11.9948L2.15625 18.8754C2.29247 19.1177 2.58923 19.4764 2.79759 19.7098L9.99074 12.5166H23.987C23.9945 12.3436 23.9968 12.1698 23.9968 11.9949C23.9968 11.7606 23.9903 11.5879 23.9853 11.4732Z" fill="#FFDA44"/>
<path d="M2.91222 14.5574V13.5523C3.91525 13.5523 4.7312 12.7362 4.7312 11.7333C4.7312 11.0237 4.15384 10.4464 3.44425 10.4464C2.96083 10.4464 2.5675 10.8396 2.5675 11.3232C2.5675 11.6323 2.81898 11.8838 3.12817 11.8838C3.30292 11.8838 3.44509 11.7416 3.44509 11.5668H4.45018C4.45018 12.2959 3.85712 12.8889 3.12822 12.8889C2.26483 12.889 1.5625 12.1865 1.5625 11.3232C1.5625 10.2856 2.40672 9.44141 3.44429 9.44141C4.70813 9.44141 5.73638 10.4697 5.73638 11.7335C5.73634 13.2905 4.46945 14.5574 2.91222 14.5574Z" fill="#FFDA44"/>
</g>
<defs>
<clipPath id="clip0_732_92736">
<rect width="24" height="24" fill="white"/>
</clipPath>
</defs>
</svg>
