<svg width="83" height="40" viewBox="0 0 83 40" fill="none" xmlns="http://www.w3.org/2000/svg">
<path fill-rule="evenodd" clip-rule="evenodd" d="M51.8419 32.4331C51.8419 31.7669 51.6536 31.6863 51.3763 31.6863C51.1385 31.6863 50.9402 31.7992 50.936 32.4331H51.8419ZM50.936 32.7146C50.936 33.3536 51.1105 33.481 51.4039 33.481C51.6621 33.481 51.7967 33.2768 51.8086 33.0467H52.2243C52.22 33.5531 51.8999 33.7841 51.4148 33.7841C50.9207 33.7841 50.5312 33.6384 50.5312 32.6284C50.5312 31.9585 50.6083 31.4048 51.4148 31.4048C52.0763 31.4048 52.2414 31.7627 52.2414 32.5202V32.7146H50.936Z" fill="white"/>
<path fill-rule="evenodd" clip-rule="evenodd" d="M54.6632 30.8528H54.6532L54.1329 32.5969H55.1967L54.6632 30.8528ZM54.4054 30.4663H54.9442L56.0252 33.739H55.5501L55.3114 32.9595H54.0273L53.7796 33.739H53.3516L54.4054 30.4663Z" fill="white"/>
<path fill-rule="evenodd" clip-rule="evenodd" d="M56.7218 31.7945H56.7313C56.8883 31.4441 57.0818 31.4048 57.449 31.4048V31.7903C57.4166 31.7861 57.38 31.7814 57.3477 31.7763C57.3153 31.7716 57.2839 31.7669 57.2478 31.7669C56.8283 31.7669 56.7218 32.0803 56.7218 32.389V33.7391H56.3438V31.4507H56.7218V31.7945Z" fill="white"/>
<path fill-rule="evenodd" clip-rule="evenodd" d="M58.858 32.4331C58.858 31.7669 58.6697 31.6863 58.3929 31.6863C58.1556 31.6863 57.9563 31.7992 57.953 32.4331H58.858ZM57.953 32.7146C57.953 33.3536 58.1266 33.481 58.4214 33.481C58.6792 33.481 58.8138 33.2768 58.8276 33.0467H59.2403C59.2351 33.5531 58.9184 33.7841 58.4305 33.7841C57.9378 33.7841 57.5469 33.6384 57.5469 32.6284C57.5469 31.9585 57.6258 31.4048 58.4305 31.4048C59.0934 31.4048 59.2575 31.7627 59.2575 32.5202V32.7146H57.953Z" fill="white"/>
<path fill-rule="evenodd" clip-rule="evenodd" d="M60.9545 33.3764H61.5528C62.0036 33.3764 62.1658 33.0597 62.1658 32.8199C62.1658 32.298 61.8371 32.2071 61.4063 32.2071H60.9545V33.3764ZM60.9545 31.8445H61.5718C61.9028 31.8399 62.064 31.6403 62.064 31.3236C62.064 31.051 61.9075 30.8284 61.5528 30.8284H60.9545V31.8445ZM60.5312 33.739V30.4668H61.6122C62.0735 30.4668 62.2295 30.6205 62.3541 30.8013C62.4687 30.9784 62.4882 31.1737 62.4882 31.2369C62.4882 31.6445 62.345 31.9172 61.9156 32.0122V32.0352C62.3907 32.0895 62.5985 32.3711 62.5985 32.8199C62.5985 33.658 61.9774 33.739 61.5994 33.739H60.5312Z" fill="white"/>
<path fill-rule="evenodd" clip-rule="evenodd" d="M63.3298 33.0596C63.3298 33.2817 63.4401 33.4812 63.694 33.4812C63.9242 33.4812 64.2105 33.3398 64.172 32.6005C63.8139 32.6066 63.3298 32.5738 63.3298 33.0596ZM64.182 33.4086H64.172C64.0569 33.67 63.8776 33.7843 63.5875 33.7843C63.0963 33.7843 62.9531 33.4714 62.9531 33.0325C62.9531 32.3382 63.6441 32.3073 64.172 32.3209C64.182 32.0154 64.1858 31.6861 63.782 31.6861C63.5295 31.6861 63.3944 31.8533 63.4173 32.0941H63.0083C63.0273 31.5807 63.3022 31.405 63.7944 31.405C64.3941 31.405 64.5501 31.7077 64.5501 32.0941V33.1945C64.5501 33.3763 64.5681 33.5632 64.5967 33.7394H64.182V33.4086Z" fill="white"/>
<path fill-rule="evenodd" clip-rule="evenodd" d="M65.7002 33.7841C65.1975 33.7841 64.8851 33.5681 64.8989 33.0406H65.3274C65.3274 33.1713 65.3312 33.481 65.7135 33.481C65.9385 33.481 66.1144 33.3672 66.1144 33.1315C66.1144 32.7244 64.954 32.7146 64.954 32.0302C64.954 31.7903 65.101 31.4048 65.7554 31.4048C66.1691 31.4048 66.5229 31.5997 66.4911 32.0531H66.0735C66.0778 31.8123 65.948 31.6859 65.7097 31.6859C65.5076 31.6859 65.3507 31.7945 65.3507 31.9941C65.3507 32.397 66.5101 32.3886 66.5101 33.0866C66.5101 33.5887 66.1605 33.7841 65.7002 33.7841Z" fill="white"/>
<path fill-rule="evenodd" clip-rule="evenodd" d="M67.2438 33.7392H66.8672V30.4666H67.2438V32.4392H67.2538L67.9619 31.4498H68.4227L67.6495 32.4332L68.5611 33.7392H68.0818L67.2538 32.4561H67.2438V33.7392Z" fill="white"/>
<path fill-rule="evenodd" clip-rule="evenodd" d="M69.9141 32.4331C69.9141 31.7669 69.7248 31.6863 69.449 31.6863C69.2093 31.6863 69.012 31.7978 69.0082 32.4331H69.9141ZM69.0082 32.7146C69.0082 33.3536 69.1817 33.481 69.4771 33.481C69.7339 33.481 69.8675 33.2768 69.8808 33.0458H70.2965C70.2912 33.5531 69.9726 33.7841 69.4856 33.7841C68.9934 33.7841 68.6016 33.6384 68.6016 32.6279C68.6016 31.9585 68.68 31.4048 69.4856 31.4048C70.1476 31.4048 70.3131 31.7618 70.3131 32.5202V32.7146H69.0082Z" fill="white"/>
<path fill-rule="evenodd" clip-rule="evenodd" d="M70.7955 31.4498V31.01L71.1721 30.8413V31.4498H71.6791V31.7309H71.1721V33.1316C71.1721 33.2764 71.1721 33.4628 71.5178 33.4628C71.5459 33.4628 71.6049 33.4534 71.6881 33.4436V33.7294C71.5635 33.7392 71.4403 33.7659 71.3157 33.7659C70.9567 33.7659 70.7955 33.6221 70.7955 33.3584V31.7309H70.4141V31.4498H70.7955Z" fill="white"/>
<path fill-rule="evenodd" clip-rule="evenodd" d="M72.8629 33.4811C73.3361 33.4811 73.3361 32.9827 73.3361 32.6369C73.3361 32.0256 73.2809 31.7075 72.8752 31.7075C72.4572 31.7075 72.4401 32.197 72.4401 32.5011C72.4401 32.8501 72.3982 33.4811 72.8629 33.4811ZM72.4401 33.7392H72.0625V30.4666H72.4401V31.6808H72.4525C72.5823 31.499 72.7421 31.4049 72.9632 31.4049C73.7132 31.4049 73.7317 32.0612 73.7317 32.6327C73.7317 33.6385 73.3541 33.7842 72.9818 33.7842C72.7373 33.7842 72.5771 33.6802 72.4482 33.467H72.4401V33.7392Z" fill="white"/>
<path fill-rule="evenodd" clip-rule="evenodd" d="M74.3996 33.0596C74.3996 33.2817 74.5104 33.4812 74.7644 33.4812C74.9931 33.4812 75.2794 33.3398 75.2418 32.6005C74.8833 32.6066 74.3996 32.5738 74.3996 33.0596ZM75.2518 33.4086H75.2418C75.1267 33.67 74.9475 33.7843 74.6569 33.7843C74.1642 33.7843 74.0234 33.4714 74.0234 33.0325C74.0234 32.3382 74.713 32.3073 75.2418 32.3209C75.2518 32.0154 75.2556 31.6861 74.8509 31.6861C74.5979 31.6861 74.4643 31.8533 74.4885 32.0941H74.0772C74.0962 31.5807 74.372 31.405 74.8642 31.405C75.4634 31.405 75.6199 31.7077 75.6199 32.0941V33.1945C75.6199 33.3763 75.6384 33.5632 75.6646 33.7394H75.2518V33.4086Z" fill="white"/>
<mask id="mask0_655_28365" style="mask-type:luminance" maskUnits="userSpaceOnUse" x="0" y="0" width="83" height="40">
<path d="M0 0H82.404V40H0V0Z" fill="white"/>
</mask>
<g mask="url(#mask0_655_28365)">
<path fill-rule="evenodd" clip-rule="evenodd" d="M76.5902 33.739H76.1641V30.4663H76.5902V33.739Z" fill="white"/>
</g>
<mask id="mask1_655_28365" style="mask-type:luminance" maskUnits="userSpaceOnUse" x="0" y="0" width="83" height="40">
<path d="M0 0H82.404V40H0V0Z" fill="white"/>
</mask>
<g mask="url(#mask1_655_28365)">
<path fill-rule="evenodd" clip-rule="evenodd" d="M77.5199 33.739H77.0938V30.4663H77.5199V33.739Z" fill="white"/>
</g>
<mask id="mask2_655_28365" style="mask-type:luminance" maskUnits="userSpaceOnUse" x="0" y="0" width="83" height="40">
<path d="M0 0H82.404V40H0V0Z" fill="white"/>
</mask>
<g mask="url(#mask2_655_28365)">
<path fill-rule="evenodd" clip-rule="evenodd" d="M51.4756 8.56919V11.0385H54.8682V13.229H51.4756V18.0696H49.1016V7.12118C49.1016 6.52811 49.336 6.2981 49.9376 6.2981H55.554V8.56919H51.4756Z" fill="white"/>
</g>
<mask id="mask3_655_28365" style="mask-type:luminance" maskUnits="userSpaceOnUse" x="0" y="0" width="83" height="40">
<path d="M0 0H82.404V40H0V0Z" fill="white"/>
</mask>
<g mask="url(#mask3_655_28365)">
<path fill-rule="evenodd" clip-rule="evenodd" d="M56.3516 18.0696V7.12118C56.3516 6.52811 56.5851 6.2981 57.1871 6.2981H58.7237V18.0696H56.3516Z" fill="white"/>
</g>
<mask id="mask4_655_28365" style="mask-type:luminance" maskUnits="userSpaceOnUse" x="0" y="0" width="83" height="40">
<path d="M0 0H82.404V40H0V0Z" fill="white"/>
</mask>
<g mask="url(#mask4_655_28365)">
<path fill-rule="evenodd" clip-rule="evenodd" d="M64.7091 14.5791C64.7091 15.5666 64.1265 16.044 63.3062 16.044H62.2528V13.1137H63.3062C64.1265 13.1137 64.7091 13.5902 64.7091 14.5791ZM67.1002 14.7102C67.1002 13.1137 66.2318 12.3562 65.596 12.1421C66.1643 11.8793 67.0165 11.2207 67.0165 9.40868C67.0165 7.76204 65.8804 6.2981 63.4565 6.2981H60.7657C60.1651 6.2981 59.9297 6.52811 59.9297 7.12118V18.0696H63.5568C65.596 18.0696 67.1002 16.9495 67.1002 14.7102ZM64.6772 9.72208C64.6772 10.6759 64.1089 11.1532 63.2895 11.1532H62.2528V8.28952H63.2895C64.1089 8.28952 64.6772 8.76688 64.6772 9.72208Z" fill="white"/>
</g>
<mask id="mask5_655_28365" style="mask-type:luminance" maskUnits="userSpaceOnUse" x="0" y="0" width="83" height="40">
<path d="M0 0H82.404V40H0V0Z" fill="white"/>
</mask>
<g mask="url(#mask5_655_28365)">
<path fill-rule="evenodd" clip-rule="evenodd" d="M75.0709 18.0694V9.22723C75.0709 8.32263 74.5682 6.03467 71.5935 6.03467C68.6184 6.03467 68.1172 8.32263 68.1172 9.22723V18.0694H70.4912V14.1011H72.6964V18.0694H75.0709ZM72.6964 11.911H70.4912V9.49097C70.4912 8.99675 70.6581 8.15726 71.5935 8.15726C72.5309 8.15726 72.6964 8.99675 72.6964 9.49097V11.911Z" fill="white"/>
</g>
<mask id="mask6_655_28365" style="mask-type:luminance" maskUnits="userSpaceOnUse" x="0" y="0" width="83" height="40">
<path d="M0 0H82.404V40H0V0Z" fill="white"/>
</mask>
<g mask="url(#mask6_655_28365)">
<path fill-rule="evenodd" clip-rule="evenodd" d="M40.6063 40H0V0H40.6063V40Z" fill="white"/>
</g>
<mask id="mask7_655_28365" style="mask-type:luminance" maskUnits="userSpaceOnUse" x="0" y="0" width="83" height="40">
<path d="M0 0H82.404V40H0V0Z" fill="white"/>
</mask>
<g mask="url(#mask7_655_28365)">
<path fill-rule="evenodd" clip-rule="evenodd" d="M40.2092 39.6079H0.398438V0.392578H40.2092V39.6079Z" fill="black"/>
</g>
<mask id="mask8_655_28365" style="mask-type:luminance" maskUnits="userSpaceOnUse" x="0" y="0" width="83" height="40">
<path d="M0 0H82.404V40H0V0Z" fill="white"/>
</mask>
<g mask="url(#mask8_655_28365)">
<path fill-rule="evenodd" clip-rule="evenodd" d="M20.5576 19.2395C20.9204 21.2502 21.8178 23.9152 21.8178 23.9152C21.8178 23.9152 21.7788 24.3289 22.4717 25.3394C23.1656 26.3494 23.741 26.5241 23.741 26.5241C23.5902 26.6075 23.741 26.5733 23.741 26.5733L23.789 26.555L24.2403 26.8497C25.2266 27.2825 26.1159 27.061 27.4727 26.994C28.8305 26.9265 31.1455 25.7141 31.1455 25.7141L31.1945 25.4162C28.4405 26.7059 27.9321 26.6098 27.3458 26.764C26.7713 26.9139 25.3893 27.1181 24.0463 26.4543L24.2931 26.3592L25.5491 24.5121L26.6044 22.4836C26.6044 22.4836 27.8698 20.0696 28.6978 17.4027C29.5015 14.814 29.7026 12.9167 29.7026 12.9167C29.7026 12.9167 29.8691 11.2668 29.8358 11.1019C29.802 10.9375 29.8524 9.3536 29.685 8.89264L29.2998 8.51318C29.4863 9.68012 29.4839 9.66419 29.5005 10.4095C29.5172 11.1516 29.4839 12.1419 29.3331 13.5107C29.1824 14.88 28.4628 17.2383 28.4628 17.2383C28.4628 17.2383 27.2568 20.8004 26.4707 22.0381C25.6832 23.2739 25.1639 24.5608 25.1639 24.5608C25.1639 24.5608 24.2551 25.9053 23.8827 26.3704C22.5897 25.6467 22.3452 24.32 22.3452 24.32C21.3489 23.0308 19.8438 14.1975 19.8438 14.1975L19.5703 14.2462L20.2057 17.6421L20.5576 19.2395Z" fill="white"/>
</g>
<mask id="mask9_655_28365" style="mask-type:luminance" maskUnits="userSpaceOnUse" x="0" y="0" width="83" height="40">
<path d="M0 0H82.404V40H0V0Z" fill="white"/>
</mask>
<g mask="url(#mask9_655_28365)">
<path fill-rule="evenodd" clip-rule="evenodd" d="M31.1449 30.7904C30.3146 30.8461 28.0271 30.2067 28.0271 30.2067C28.0271 30.2067 26.5591 29.5789 26.3075 29.5457C26.0578 29.5119 23.407 28.1454 23.407 28.1454H22.2229L21.87 27.4718C21.87 27.4718 20.9479 26.2496 20.3092 26.0144C19.6715 25.7788 17.9538 24.4221 17.9538 24.4221L17.6684 23.941C17.6684 23.941 16.0068 22.4935 15.4271 22.2143C14.8465 21.9337 11.1699 17.629 11.1699 17.629C11.1699 17.629 10.1912 15.7565 9.77126 15.4876C9.37749 15.2365 8.39879 13.0114 8.27086 12.7176C8.2623 12.6961 8.25659 12.6853 8.25659 12.6853L8.21094 13.2564L8.83725 14.5577L9.69184 15.9917C9.69184 15.9917 10.7157 17.2701 11.0914 17.9208C11.4666 18.5701 14.2549 21.5191 14.2549 21.5191L17.7949 24.6582L19.5588 25.9254L20.1171 26.5419L21.5176 28.2452L23.5426 28.5146L25.7501 29.5906C25.7501 29.5906 27.971 30.4765 28.0614 30.5215C28.1522 30.566 30.1672 31.0255 30.1672 31.0255L30.9518 31.1717C30.9518 31.1717 31.9762 30.7346 31.1449 30.7904Z" fill="white"/>
</g>
<mask id="mask10_655_28365" style="mask-type:luminance" maskUnits="userSpaceOnUse" x="0" y="0" width="83" height="40">
<path d="M0 0H82.404V40H0V0Z" fill="white"/>
</mask>
<g mask="url(#mask10_655_28365)">
<path fill-rule="evenodd" clip-rule="evenodd" d="M14.2632 27.7345C13.4918 27.4272 12.9844 27.7738 12.9844 27.7738L13.7358 28.0526L16.4507 28.3988L19.0292 28.5716C19.0292 28.5716 20.104 28.6396 20.4369 28.8213C20.7698 29.0045 20.9353 28.5243 20.9353 28.5243L18.8338 28.2451C18.8338 28.2451 15.0345 28.0427 14.2632 27.7345Z" fill="white"/>
</g>
<mask id="mask11_655_28365" style="mask-type:luminance" maskUnits="userSpaceOnUse" x="0" y="0" width="83" height="40">
<path d="M0 0H82.404V40H0V0Z" fill="white"/>
</mask>
<g mask="url(#mask11_655_28365)">
<path fill-rule="evenodd" clip-rule="evenodd" d="M16.3898 3.84473C16.3898 3.84473 13.8631 4.38018 11.3579 5.89565C11.3579 5.89565 9.84131 7.12957 9.69531 7.29494C9.69531 7.29494 12.4055 5.34708 15.1376 5.06554L15.2627 5.08006L16.3898 3.84473Z" fill="#009A3E"/>
</g>
<mask id="mask12_655_28365" style="mask-type:luminance" maskUnits="userSpaceOnUse" x="0" y="0" width="83" height="40">
<path d="M0 0H82.404V40H0V0Z" fill="white"/>
</mask>
<g mask="url(#mask12_655_28365)">
<path fill-rule="evenodd" clip-rule="evenodd" d="M20.7397 13.3567L22.1165 12.217L23.5079 11.0182L24.9884 9.92197L26.9368 8.88246L28.8271 8.01721L30.8045 7.42508C30.8045 7.42508 30.3066 6.60246 29.8824 6.6746C29.4572 6.74722 28.0648 7.12198 28.0648 7.12198C28.0648 7.12198 26.2044 7.95959 24.6954 7.62745C23.1865 7.29531 25.1639 6.2127 25.1639 6.2127L25.5648 6.15321L26.4731 5.3765L27.4494 5.62619L28.0158 5.87588L28.1727 5.89555L28.1975 5.8904C28.1975 5.8904 27.6449 4.95301 26.932 4.66819C26.2187 4.38477 25.1639 4.57215 24.3102 5.03405C23.4556 5.49642 22.5121 5.36198 22.5121 5.36198C22.5121 5.36198 21.6185 5.14508 22.0142 4.92818C22.4099 4.71128 24.0648 4.25079 24.0648 4.25079V4.16412C24.0648 4.16412 23.4214 3.44597 21.9405 3.47033C21.9405 3.47033 21.3703 3.43145 20.6812 3.81746L19.7857 4.25781L19.1922 4.61057C19.1922 4.61057 18.2986 5.26735 17.8307 5.07247C17.3613 4.87759 17.669 4.25079 17.669 4.25079C17.669 4.25079 17.9615 3.75984 18.3571 3.62258L18.0823 3.5317L17.9986 3.54997C17.9986 3.54997 17.2771 3.60103 17.2586 3.60759C17.2405 3.61509 16.6432 3.75234 16.6432 3.75234C16.6432 3.75234 16.1596 3.80997 15.713 4.25079C15.266 4.69067 14.9141 5.50533 14.6801 6.11198C14.4461 6.71817 13.6248 8.18258 12.7531 8.52924C11.8814 8.87543 11.5081 8.414 11.5081 8.414C11.5081 8.414 11.413 8.29126 11.3174 8.03127C11.2223 7.77174 10.9431 7.38854 10.6069 7.37448C10.2697 7.36043 9.33287 7.20162 8.65852 8.1971L7.86719 9.1715C7.86719 9.1715 9.14978 9.16494 10.021 10.7666C10.021 10.7666 10.6877 13.1754 10.8047 13.4574C10.9217 13.739 11.1267 14.5616 11.9114 15.2189C12.6951 15.8752 14.5117 16.1848 15.8305 15.9253C17.1483 15.6662 18.438 15.0741 20.7397 13.3567Z" fill="#F9B123"/>
</g>
<mask id="mask13_655_28365" style="mask-type:luminance" maskUnits="userSpaceOnUse" x="0" y="0" width="83" height="40">
<path d="M0 0H82.404V40H0V0Z" fill="white"/>
</mask>
<g mask="url(#mask13_655_28365)">
<path fill-rule="evenodd" clip-rule="evenodd" d="M36.1822 25.6429C36.1822 25.6429 34.8982 26.5119 33.9347 25.9423C32.9707 25.374 31.495 23.6979 28.188 23.0964C28.188 23.0964 27.2112 22.9099 27.1769 22.4321C27.1227 21.6877 28.1723 21.1204 29.0226 20.9775C29.8729 20.8346 31.0138 21.0881 31.3505 21.1832C31.6872 21.2783 34.1439 22.1323 34.2718 20.6932C34.4002 19.2536 33.8866 17.183 29.1348 14.9854C24.3835 12.787 20.2732 11.8702 20.2732 11.8702C20.2732 11.8702 19.1005 11.6167 19.5185 10.8733C19.9355 10.1308 22.6177 10.5102 28.1076 12.2178L31.2382 13.3716C31.2382 13.3716 31.6715 13.6091 31.8317 13.2774C31.9925 12.9453 31.4465 12.5654 31.0775 12.3279C30.7085 12.0913 29.2157 11.3797 27.1608 10.6676C25.1063 9.95698 20.2575 8.73898 20.2575 8.73898C20.2575 8.73898 19.0367 8.47008 19.2621 8.05831C19.4861 7.64747 19.9355 7.2207 23.6126 7.97961C27.2892 8.73898 29.103 9.40326 32.1532 10.8414C32.1532 10.8414 32.3396 10.9173 32.4081 10.8021C32.4766 10.6868 32.3786 10.5332 32.2612 10.4554C32.1446 10.3791 29.1358 8.39701 26.4598 7.58891C23.7838 6.78035 23.1385 6.61732 23.1385 6.61732C23.1385 6.61732 22.1231 6.35733 22.2297 5.86685C22.3376 5.37637 24.2232 5.77034 24.2232 5.77034C24.2232 5.77034 26.0789 6.0116 29.8196 7.69478C29.8196 7.69478 31.4698 8.51225 32.2226 9.13811C32.2226 9.13811 32.4424 9.21962 32.2711 9.01818C32.2711 9.01818 30.4935 7.63716 29.7511 7.16542C29.0088 6.69415 27.7005 5.73193 25.9909 5.42415C25.9909 5.42415 25.3655 5.24098 25.639 5.0967C25.9134 4.95288 26.1564 4.95288 26.1564 4.95288C26.1564 4.95288 26.3818 4.96225 26.8507 5.06812C27.3196 5.17399 29.9076 6.26129 31.7143 7.72383C33.5209 9.18636 34.7132 11.1778 35.397 12.3222C35.758 12.9284 36.2564 13.9272 36.5902 14.9892C36.8865 15.9341 37.0339 16.9235 37.1357 17.8163C37.3502 19.7117 37.3644 22.5492 36.6763 24.4409C36.6763 24.4409 36.4347 25.3005 36.1822 25.6429Z" fill="#E4003C"/>
</g>
<mask id="mask14_655_28365" style="mask-type:luminance" maskUnits="userSpaceOnUse" x="0" y="0" width="83" height="40">
<path d="M0 0H82.404V40H0V0Z" fill="white"/>
</mask>
<g mask="url(#mask14_655_28365)">
<path fill-rule="evenodd" clip-rule="evenodd" d="M20.8488 5.45697C20.8488 5.45697 21.4442 5.94745 22.099 5.75444C22.7534 5.56237 22.402 4.87935 22.255 4.71586C22.1081 4.5519 21.0438 3.30111 18.7863 3.4365C18.7863 3.4365 18.0453 3.46976 17.3125 3.60514C17.3125 3.60514 18.6003 3.40745 19.5681 4.22538C20.5359 5.04332 20.8488 5.45697 20.8488 5.45697Z" fill="#F9B123"/>
</g>
<mask id="mask15_655_28365" style="mask-type:luminance" maskUnits="userSpaceOnUse" x="0" y="0" width="83" height="40">
<path d="M0 0H82.404V40H0V0Z" fill="white"/>
</mask>
<g mask="url(#mask15_655_28365)">
<path fill-rule="evenodd" clip-rule="evenodd" d="M22.4375 3.4917C23.3311 3.52168 24.4891 3.85569 24.4891 3.85569C25.8563 4.15551 26.3542 5.01045 26.6481 5.36648C26.9411 5.72157 27.195 6.52124 26.5202 6.57886C25.8468 6.63648 25.3394 5.73188 25.3394 5.73188L25.0949 5.32807C24.1709 3.7873 22.9021 3.53667 22.4494 3.49732L22.4375 3.4917Z" fill="#F9B123"/>
</g>
<mask id="mask16_655_28365" style="mask-type:luminance" maskUnits="userSpaceOnUse" x="0" y="0" width="83" height="40">
<path d="M0 0H82.404V40H0V0Z" fill="white"/>
</mask>
<g mask="url(#mask16_655_28365)">
<path fill-rule="evenodd" clip-rule="evenodd" d="M28.5635 6.52105C28.5635 6.52105 28.9192 7.32915 29.4275 7.32399C29.935 7.31884 29.6967 6.75716 29.4665 6.36693C29.2368 5.97717 28.8707 5.6455 28.4412 5.39066C28.0108 5.13581 27.142 4.74043 27.142 4.74043L26.8828 4.6355C26.8828 4.6355 27.5129 4.95265 27.8553 5.42907C28.1968 5.9055 28.5635 6.52105 28.5635 6.52105Z" fill="#F9B123"/>
</g>
<mask id="mask17_655_28365" style="mask-type:luminance" maskUnits="userSpaceOnUse" x="0" y="0" width="83" height="40">
<path d="M0 0H82.404V40H0V0Z" fill="white"/>
</mask>
<g mask="url(#mask17_655_28365)">
<path fill-rule="evenodd" clip-rule="evenodd" d="M4.46875 25.8491C4.46875 25.8491 5.10648 28.0092 7.19467 30.5314C9.28334 33.054 9.94865 33.1234 9.94865 33.1234C9.94865 33.1234 10.1574 33.4358 10.7019 33.8345C11.1513 34.1643 11.8466 34.5405 12.7178 34.9738C14.6396 35.929 15.7586 35.9716 15.7586 35.9716L15.6269 34.8618L9.92107 29.6624L6.95023 27.9586L5.35948 26.3401L4.46875 25.8491Z" fill="#858584"/>
</g>
<mask id="mask18_655_28365" style="mask-type:luminance" maskUnits="userSpaceOnUse" x="0" y="0" width="83" height="40">
<path d="M0 0H82.404V40H0V0Z" fill="white"/>
</mask>
<g mask="url(#mask18_655_28365)">
<path fill-rule="evenodd" clip-rule="evenodd" d="M5.56806 22.4765L6.73652 20.8795C6.73652 20.8795 7.11364 19.5051 7.90593 19.9693C8.69821 20.434 9.13193 21.9762 7.45367 24.3536C7.45367 24.3536 6.3789 25.4672 6.88775 26.5446C7.39707 27.6216 7.79369 28.284 8.90698 27.9861C10.0198 27.6877 10.6304 27.5668 11.8469 26.8889L15.9491 23.9545L18.4491 21.9813C18.4491 21.9813 19.27 21.222 19.9733 21.7701C20.6781 22.3186 19.6119 23.2902 19.3289 23.5793C19.0455 23.8674 15.7051 26.9953 13.947 28.2072L13.1076 28.9188C13.1076 28.9188 12.7357 29.2467 13.0292 29.7081C13.0292 29.7081 13.3806 30.0347 13.8885 29.6796C13.8885 29.6796 18.2251 26.9274 19.3974 25.7829C20.5706 24.637 21.6544 23.7526 21.6544 23.7526C21.6544 23.7526 22.4168 22.9829 23.0811 23.4926C23.7455 24.0023 22.9437 24.7429 22.8462 24.8488C22.7487 24.9551 20.5112 27.3316 20.5112 27.3316C20.5112 27.3316 17.3853 30.1597 17.0139 30.3331C16.643 30.5069 16.2715 31.901 17.4633 31.2854C18.6555 30.6694 20.6491 29.2078 21.137 28.6972C21.6259 28.188 23.531 26.331 23.531 26.331C23.531 26.331 24.0275 25.715 24.6628 26.0902C25.2977 26.4664 24.4874 27.5237 24.4874 27.5237L22.6017 29.6599L20.874 31.2854C20.874 31.2854 18.9185 32.8445 18.0687 33.335C17.2184 33.8264 18.3811 34.1431 18.5576 34.1337L18.733 34.1243C18.733 34.1243 19.0655 34.0569 19.4264 33.8746C19.7874 33.6915 21.5479 32.517 21.5479 32.517L23.3745 30.9589C23.3745 30.9589 24.0184 30.0253 24.7213 30.3143C25.4256 30.6029 24.7998 31.4592 24.6043 31.7192C24.4094 31.9778 23.4226 33.075 23.4226 33.075L19.5629 35.5096C19.5629 35.5096 18.5357 36.387 16.6306 36.1659C14.7255 35.9452 13.2736 34.4129 13.2736 34.4129L10.3622 31.2086C10.3622 31.2086 9.13097 30.0347 8.57457 29.7559C8.01863 29.4767 6.6609 28.6785 5.85007 27.8221C5.03971 26.9658 4.54132 26.0513 4.54132 26.0513C4.54132 26.0513 4.07242 24.9739 4.37535 24.3874C4.67829 23.7999 5.56806 22.4765 5.56806 22.4765Z" fill="#858584"/>
</g>
<mask id="mask19_655_28365" style="mask-type:luminance" maskUnits="userSpaceOnUse" x="0" y="0" width="83" height="40">
<path d="M0 0H82.404V40H0V0Z" fill="white"/>
</mask>
<g mask="url(#mask19_655_28365)">
<path fill-rule="evenodd" clip-rule="evenodd" d="M11.455 5.85327C11.455 5.85327 10.8006 6.19853 9.65023 7.08579C8.50032 7.97353 7.19538 9.44543 6.62518 10.2399C6.05355 11.0335 3.96583 13.6166 3.46697 18.7261C3.46697 18.7261 3.27674 20.5147 3.56969 22.0297C3.56969 22.0297 3.74755 23.8759 4.58073 24.6137C4.58073 24.6137 7.77509 26.9809 11.7746 27.6442C11.7746 27.6442 12.5854 27.7163 12.6534 27.0043C12.7219 26.2927 11.5886 25.8505 11.5886 25.8505C11.5886 25.8505 8.94164 24.9356 8.67818 24.7144C8.41472 24.4929 8.0433 24.5322 6.68652 23.4351C5.32832 22.3379 5.26982 21.5495 5.51379 21.1935C5.75775 20.8375 6.18766 21.0394 6.60758 21.2029C7.02703 21.3664 9.04912 22.1267 9.04912 22.1267L14.646 23.6759C14.646 23.6759 16.922 24.4362 17.2835 23.4735C17.6449 22.5113 16.6186 22.107 16.2282 21.9636C15.8378 21.8184 11.6576 20.4725 9.22507 19.4616C6.79305 18.4507 6.57286 18.4507 6.71981 17.4407C6.71981 17.4407 6.83728 16.7914 8.55168 17.1376C10.3926 17.5105 14.1334 18.2352 14.1334 18.2352L19.3051 19.2883C19.3051 19.2883 20.7132 19.6209 20.9329 18.8123C21.1526 18.0037 20.2724 17.5273 19.6565 17.3114C19.0416 17.0945 13.518 15.5499 13.518 15.5499L10.1776 14.6992C10.1776 14.6992 7.14449 14.3535 8.11131 13.0826C8.11131 13.0826 8.40473 12.6497 10.6323 12.8376C12.8584 13.0249 16.8146 13.7759 18.0301 14.1216C19.2461 14.4687 20.6547 14.6992 20.8892 13.8326C21.1232 12.9678 20.2581 12.5776 18.9536 12.1883C17.6492 11.798 15.0122 11.1492 12.6391 10.9033C10.2656 10.6587 8.82941 10.6292 8.82941 10.6292C8.82941 10.6292 7.77366 10.626 7.72515 10.3496C7.72515 10.3496 7.61339 9.99447 7.95057 9.33113C8.28774 8.66638 9.15421 7.7749 9.55036 7.454L11.455 5.85327Z" fill="#009A3E"/>
</g>
<mask id="mask20_655_28365" style="mask-type:luminance" maskUnits="userSpaceOnUse" x="0" y="0" width="83" height="40">
<path d="M0 0H82.404V40H0V0Z" fill="white"/>
</mask>
<g mask="url(#mask20_655_28365)">
<path fill-rule="evenodd" clip-rule="evenodd" d="M35.4639 26.2371L34.7824 27.5427C33.8451 29.5416 32.5463 29.9351 32.5463 29.9351C32.5463 29.9351 32.232 30.0072 31.9186 30.1206C31.7692 30.7146 31.5357 31.288 31.2656 31.8628C31.5172 31.6923 31.7274 31.5747 31.8891 31.5339C33.1194 31.2234 33.9478 30.011 33.9478 30.011C33.9478 30.011 34.4381 29.4699 34.4752 29.3903C34.5118 29.3111 34.7458 28.8707 34.7458 28.8707C34.7458 28.8707 35.1862 28.1643 35.3906 27.5872C35.5961 27.0086 35.4639 26.2371 35.4639 26.2371Z" fill="#007AC2"/>
</g>
<mask id="mask21_655_28365" style="mask-type:luminance" maskUnits="userSpaceOnUse" x="0" y="0" width="83" height="40">
<path d="M0 0H82.404V40H0V0Z" fill="white"/>
</mask>
<g mask="url(#mask21_655_28365)">
<path fill-rule="evenodd" clip-rule="evenodd" d="M31.5557 30.278L30.8828 32.1336C31.0183 32.0329 31.1448 31.9415 31.2618 31.8628C31.532 31.288 31.7655 30.7146 31.9148 30.1206C31.7873 30.167 31.6627 30.2204 31.5557 30.278Z" fill="#007AC2"/>
</g>
<mask id="mask22_655_28365" style="mask-type:luminance" maskUnits="userSpaceOnUse" x="0" y="0" width="83" height="40">
<path d="M0 0H82.404V40H0V0Z" fill="white"/>
</mask>
<g mask="url(#mask22_655_28365)">
<path fill-rule="evenodd" clip-rule="evenodd" d="M15.4154 30.2086C15.4154 30.2086 15.3565 29.2843 16.0108 29.1016C16.6657 28.9189 17.0081 29.3995 17.1641 29.9865C17.3201 30.5744 17.857 32.2187 17.857 32.2187C17.857 32.2187 18.5988 34.4027 19.8101 35.2206C21.0233 36.0386 21.602 35.4534 21.4722 34.7016C21.3457 33.9605 20.4854 30.2371 20.4854 30.2371L19.6931 26.0135C19.6931 26.0135 19.1852 24.2914 20.3289 23.9738C20.3289 23.9738 21.1797 23.637 21.5797 24.8686L22.341 27.4278L23.2698 30.5159L23.7877 32.2866C23.7877 32.2866 24.1482 34.3451 25.037 34.2106C25.9268 34.0762 25.7109 32.7584 25.7018 31.9878C25.6914 31.2181 25.2914 27.3613 25.2914 27.3613L24.852 24.4648L24.4906 21.9814C24.4906 21.9814 24.1591 20.7798 25.2225 20.5967C26.2873 20.414 26.6596 21.973 26.6596 21.973L27.4785 25.4556L28.0944 28.7648C28.0944 28.7648 28.3983 31.0167 28.3983 31.2954C28.3983 31.5746 28.5633 32.9598 29.1397 32.9308C29.7161 32.9027 30.165 31.7676 30.165 31.7676C30.165 31.7676 30.5659 30.3144 30.5569 29.3803C30.5464 28.4471 30.6876 26.8937 30.4242 24.4985C30.1607 22.1023 29.5596 21.6652 30.4484 21.3664C31.3373 21.0684 31.7477 22.3098 31.7477 22.3098C31.7477 22.3098 32.431 24.0797 32.646 25.619C32.8614 27.1579 32.8315 29.3419 32.734 29.8614C32.6365 30.3814 32.5195 32.1709 30.058 33.7201C27.596 35.2689 25.7603 35.9805 24.5001 36.2306C23.2408 36.4812 20.1815 37.0298 17.7595 36.5393C17.7595 36.5393 17.516 36.4559 17.4371 36.3084C17.2777 36.0104 15.376 32.066 15.4154 30.2086Z" fill="#007AC2"/>
</g>
<mask id="mask23_655_28365" style="mask-type:luminance" maskUnits="userSpaceOnUse" x="0" y="0" width="83" height="40">
<path d="M0 0H82.404V40H0V0Z" fill="white"/>
</mask>
<g mask="url(#mask23_655_28365)">
<path fill-rule="evenodd" clip-rule="evenodd" d="M36.6929 24.4187C35.4112 24.816 35.2567 25.8039 35.3309 26.8655C35.3794 27.5771 35.104 28.2212 34.9219 28.5669C35.1183 28.2357 35.474 27.6328 35.8216 26.8716C36.3196 25.7829 36.6929 24.4187 36.6929 24.4187Z" fill="#007AC2"/>
</g>
</svg>
