<svg width="38" height="40" viewBox="0 0 38 40" fill="none" xmlns="http://www.w3.org/2000/svg">
<path d="M4.88453 33.2969H38V0.00836639H4.88453V33.2969Z" fill="#D4D4D4"/>
<path d="M24.5923 3.22159L24.8178 3.61309C25.1532 3.42093 25.4953 3.23952 25.8434 3.06847L25.5328 2.22254L24.5923 3.22159ZM23.7123 4.15651L23.7781 4.25624C24.0518 4.0743 24.3306 3.89954 24.6143 3.73208L24.4236 3.40087L23.7123 4.15651ZM9.46016 13.431C8.85331 13.431 8.37417 13.7299 8.37417 14.3489C8.37417 14.9466 8.88524 15.2456 9.47081 15.2456C10.099 15.2456 10.823 15.0535 10.823 14.2956C10.823 13.5164 10.0777 13.431 9.46016 13.431ZM10.5354 20.0558H10.0244C10.1522 20.3119 10.2267 20.6002 10.2906 20.8885C10.3971 21.3581 10.5142 21.6036 10.8868 21.6036C11.1423 21.6036 11.3979 21.3261 11.3979 20.9418C11.3979 20.4614 11.1104 20.0878 10.5354 20.0558Z" fill="#262626"/>
<path d="M21.9556 0.0188576V3.66541L23.297 2.06437H27.7317L27.7836 2.25122C28.6866 1.93091 29.6215 1.67886 30.5827 1.5029L30.496 1.01021L30.7278 0.969174L30.8146 1.46266C31.7752 1.29971 32.761 1.21153 33.7657 1.20516V0.702777H34.0012L34.0011 1.20516C35.006 1.2114 35.9917 1.29931 36.9525 1.46239L37.0393 0.969439L37.2711 1.01047L37.1846 1.5025C37.4585 1.55256 37.7304 1.60847 38 1.67062V0.0188576H21.9556ZM34.0004 20.9416L33.9999 33.3778H36.187L34.0004 20.9416ZM32.9181 20.5622L32.9276 20.5508L32.914 20.5622L20.1751 31.2785L20.1027 31.3396C20.1546 31.4007 20.2065 31.4617 20.2592 31.5221C20.3305 31.6039 20.4022 31.6853 20.4749 31.7656C20.5491 31.8477 20.6246 31.9286 20.7002 32.0092C20.7772 32.0912 20.8548 32.1722 20.9332 32.2527C21.0128 32.3346 21.0931 32.4159 21.1743 32.4963C21.257 32.5782 21.3399 32.6596 21.4241 32.7398C21.5102 32.8219 21.5972 32.903 21.6849 32.9834C21.7747 33.0656 21.8656 33.1466 21.957 33.2269C22.0145 33.2777 22.0723 33.3278 22.1304 33.3778H22.1917L32.9181 20.5622ZM33.1078 20.7028L22.4992 33.3778H25.8083L33.1078 20.7028ZM33.3118 20.8208L26.0803 33.3778H28.7527L33.3118 20.8208ZM33.5331 20.901L29.0032 33.3778H31.3384L33.5331 20.901ZM34.2446 20.9707L36.426 33.3778H38V31.2943L37.9943 31.2785L34.2446 20.9707ZM18.4669 29.0866C18.5171 29.168 18.5673 29.2494 18.6187 29.3302C18.6708 29.412 18.7243 29.4927 18.7777 29.5738C18.8314 29.6553 18.8858 29.7365 18.9407 29.8173C18.9965 29.8989 19.0524 29.9802 19.1093 30.0609C19.1672 30.1427 19.2264 30.2235 19.2857 30.3044C19.3455 30.3861 19.4058 30.4673 19.467 30.548C19.5287 30.6294 19.5904 30.7111 19.6535 30.7915C19.7179 30.8735 19.7836 30.9542 19.8493 31.0351C19.8831 31.0765 19.9166 31.1182 19.9506 31.1594L32.7764 20.3699L18.2736 28.7643C18.289 28.7907 18.3045 28.8169 18.32 28.8431C18.3685 28.9246 18.4172 29.0059 18.4669 29.0866ZM34.4178 20.7582L37.9791 30.548L38 30.6053V26.9794L34.4178 20.7582ZM17.0135 26.164C17.0453 26.2455 17.078 26.3265 17.111 26.4075C17.144 26.4888 17.1765 26.5703 17.2105 26.6511C17.2451 26.7328 17.2812 26.8135 17.317 26.8946C17.3529 26.9761 17.3891 27.0573 17.426 27.1382C17.4634 27.2196 17.5011 27.3008 17.5397 27.3818C17.5785 27.4633 17.6185 27.5443 17.6585 27.6253C17.6988 27.7067 17.7388 27.7881 17.7802 27.8689C17.8221 27.9505 17.8654 28.0314 17.9086 28.1124C17.952 28.1939 17.9961 28.2751 18.0408 28.356C18.0785 28.4244 18.1163 28.4927 18.155 28.5605L32.6585 20.1655L16.917 25.9095C16.9183 25.9131 16.9198 25.9168 16.9211 25.9204C16.9514 26.0018 16.9821 26.0831 17.0135 26.164ZM34.6572 20.7016L38 26.5073V24.6959L34.6572 20.7016ZM16.1519 23.2413C16.1686 23.3229 16.1871 23.4037 16.2049 23.4849C16.2227 23.5661 16.2402 23.6475 16.2592 23.7284C16.2781 23.81 16.2984 23.891 16.3185 23.972C16.3388 24.0534 16.3593 24.1347 16.3805 24.2155C16.402 24.2969 16.4239 24.3781 16.4465 24.4591C16.4691 24.5406 16.4927 24.6216 16.5164 24.7026C16.5402 24.7839 16.5638 24.8653 16.5889 24.9462C16.614 25.0277 16.6407 25.1087 16.667 25.1898C16.6934 25.271 16.7193 25.3526 16.7469 25.4333C16.7746 25.5148 16.8037 25.5959 16.8326 25.6769C16.8339 25.6805 16.8351 25.6842 16.8364 25.6878L32.5786 19.9436L16.0789 22.8602C16.0872 22.9061 16.0965 22.9519 16.1052 22.9978C16.1206 23.079 16.1353 23.1606 16.1519 23.2413ZM34.8519 20.5622L34.8384 20.5509L34.8479 20.5622L38 24.3287V23.2108L34.8519 20.5622ZM34.9897 20.3699L38 22.9025V22.1125L34.9897 20.3699ZM31.5775 33.3778H33.7645L33.7649 20.9419L33.7461 21.0493L31.5775 33.3778ZM35.1073 20.1654L38 21.84V21.2212L35.1073 20.1654ZM35.1876 19.9436L38 20.9699V20.4408L35.1876 19.9436ZM15.7901 20.0752C15.7922 20.1566 15.7961 20.2375 15.7993 20.3188C15.8026 20.3999 15.8054 20.4813 15.8096 20.5622C15.814 20.6436 15.8197 20.7248 15.8251 20.8058C15.8305 20.887 15.8358 20.9684 15.8422 21.0493C15.8488 21.1307 15.8563 21.2119 15.8639 21.2929C15.8714 21.3743 15.8793 21.4556 15.888 21.5364C15.8966 21.6178 15.906 21.699 15.9158 21.78C15.9256 21.8614 15.936 21.9425 15.947 22.0235C15.9578 22.1049 15.9689 22.1862 15.981 22.2671C15.993 22.3485 16.0062 22.4296 16.0193 22.5107C16.0256 22.5497 16.0321 22.5887 16.0386 22.6276L32.5381 19.7111L15.785 19.7108C15.7852 19.7512 15.786 19.7913 15.7865 19.8317C15.7876 19.9128 15.7879 19.9942 15.7901 20.0752ZM38 20.2013V19.7112L35.2281 19.7111L38 20.2013ZM35.2288 19.4751L38 19.4752V18.9852L35.2288 19.4751ZM35.1873 19.2428L38 18.7456V18.2164L35.1873 19.2428Z" fill="#262626"/>
<path d="M36.8916 1.80873L36.9117 1.69479C36.613 1.6442 36.3118 1.6009 36.0083 1.56518C35.3492 1.48762 34.6796 1.44553 34.0011 1.44114L34.0006 18.2441L34.0211 18.1268L36.8916 1.80873ZM33.5474 18.3654L31.0218 4.00073L31.0212 3.99728L31.0201 4.00073L29.8823 7.1773C29.8564 7.25207 29.8296 7.33056 29.8023 7.4105C29.775 7.49018 29.7466 7.57159 29.7172 7.65406C29.7062 7.6846 29.6954 7.71488 29.6842 7.74556L33.5474 18.3654ZM29.5774 8.14103L29.553 8.07384C29.5432 8.09628 29.5338 8.11886 29.5239 8.14103C29.4863 8.2247 29.4464 8.30624 29.4038 8.38459C29.3569 8.47091 29.3056 8.55152 29.2514 8.62828C29.2312 8.65709 29.2117 8.68724 29.1902 8.71446C29.1441 8.7721 29.0954 8.82336 29.0453 8.8717C28.9442 8.96957 28.8363 9.05058 28.7214 9.11525C28.5316 9.22229 28.325 9.28789 28.1091 9.32919L28.1262 9.35881L33.2707 18.2937L29.5774 8.14103ZM35.1066 19.0211L38 17.9653V17.3463L37.9142 17.3961L35.1066 19.0211ZM16.0193 16.6655C16.0062 16.7465 15.993 16.8276 15.981 16.909C15.9691 16.99 15.9578 17.0712 15.947 17.1526C15.9361 17.2336 15.9256 17.3147 15.9158 17.3961C15.906 17.4771 15.8966 17.5583 15.888 17.6397C15.8793 17.7207 15.8714 17.8018 15.8639 17.8832C15.8563 17.9642 15.8488 18.0454 15.8423 18.1268C15.8358 18.2078 15.8305 18.2891 15.8251 18.3703C15.8197 18.4515 15.814 18.5325 15.8096 18.6139C15.8054 18.6948 15.8026 18.7762 15.7994 18.8575C15.7961 18.9386 15.7922 19.0196 15.7901 19.101C15.7879 19.1819 15.7876 19.2633 15.7865 19.3446C15.7859 19.388 15.7851 19.4313 15.7848 19.4748L32.5375 19.4751L16.0372 16.5578C16.0311 16.5936 16.0251 16.6295 16.0193 16.6655ZM34.9894 18.8163L38 17.0738V16.2838L34.9894 18.8163ZM34.838 18.6355L34.8638 18.6139L38 15.9756V14.8577L34.838 18.6355ZM32.6591 19.0209L18.1511 10.6227C18.1138 10.6881 18.0773 10.7541 18.0408 10.8201C17.9961 10.901 17.952 10.9822 17.9086 11.0637C17.8654 11.1447 17.8222 11.2256 17.7802 11.3072C17.7388 11.388 17.6988 11.4695 17.6585 11.5508C17.6185 11.6318 17.5786 11.7128 17.5397 11.7944C17.5011 11.8752 17.4634 11.9565 17.426 12.0379C17.3891 12.1188 17.3529 12.2001 17.317 12.2815C17.2814 12.3626 17.2452 12.4434 17.2106 12.525C17.1765 12.6058 17.144 12.6873 17.111 12.7686C17.0782 12.8496 17.0453 12.9306 17.0137 13.0121C16.9821 13.093 16.9514 13.1743 16.9211 13.2557C16.9187 13.2622 16.9162 13.2686 16.9138 13.2749L32.6591 19.0209ZM16.8335 13.4969C16.8333 13.4977 16.8329 13.4984 16.8326 13.4992C16.8037 13.5803 16.7746 13.6613 16.7469 13.7428C16.7193 13.8237 16.6934 13.9051 16.667 13.9864C16.6407 14.0675 16.614 14.1484 16.5889 14.2299C16.564 14.3108 16.5402 14.3922 16.5164 14.4735C16.4927 14.5545 16.4691 14.6356 16.4465 14.717C16.4239 14.798 16.402 14.8792 16.3806 14.9606C16.3593 15.0414 16.3388 15.1227 16.3186 15.2041C16.2985 15.2851 16.2782 15.3661 16.2592 15.4477C16.2402 15.5286 16.2227 15.61 16.2049 15.6912C16.1871 15.7724 16.1686 15.8533 16.1519 15.9348C16.1353 16.0157 16.1207 16.0971 16.1052 16.1784C16.0958 16.2274 16.086 16.2761 16.077 16.3251L32.5787 19.2427L16.8403 13.4992L16.8335 13.4969ZM34.6575 18.484L38 14.4905V12.68L34.6575 18.484ZM26.007 9.39759V7.71103H26.4967C26.6235 7.71103 26.7724 7.7182 26.9039 7.7085L24.769 4.00073L24.732 3.93646C24.6958 3.95784 24.6598 3.97922 24.6237 4.00073C24.491 4.08028 24.3592 4.16142 24.2287 4.24429C24.121 4.31268 24.0143 4.3824 23.908 4.45291L23.9312 4.48784L25.9905 7.60426H24.0033L24.0449 7.65406L33.1079 18.4832L27.8587 9.36678C27.5673 9.39865 27.2642 9.39759 26.9653 9.39759H26.007ZM34.4535 18.3661L38 12.2079V8.59787L37.989 8.62828L34.4535 18.3661ZM32.9022 18.6139L32.928 18.6355L23.6958 7.60426H23.4567L22.9668 6.73309L22.9221 6.67984L22.165 5.77507L21.9556 6.00322V7.60426H20.3034C20.2888 7.62099 20.274 7.63732 20.2594 7.65406C20.2051 7.71607 20.1517 7.77889 20.0983 7.84184L32.9022 18.6139ZM19.8494 8.14103C19.7837 8.22191 19.7179 8.30265 19.6536 8.38459C19.5904 8.46507 19.5289 8.54674 19.467 8.62828C19.4059 8.70889 19.3455 8.79016 19.2858 8.8717C19.2266 8.95257 19.1672 9.03345 19.1093 9.11525C19.0524 9.19586 18.9965 9.2774 18.9409 9.35881C18.8858 9.43955 18.8316 9.52082 18.7777 9.60236C18.7243 9.68337 18.6709 9.76411 18.6187 9.84592C18.5674 9.92666 18.5171 10.0081 18.4669 10.0895C18.4174 10.1703 18.3685 10.2515 18.32 10.333C18.3032 10.3616 18.2864 10.39 18.2695 10.4186L32.7766 18.8163L19.9461 8.02204C19.9135 8.06149 19.8816 8.10146 19.8494 8.14103ZM27.2612 6.92339C27.2384 6.85035 27.2115 6.76828 27.1814 6.67984C27.1552 6.60294 27.1266 6.52114 27.0965 6.43628C27.0685 6.35726 27.039 6.27586 27.0087 6.19273C26.9793 6.11238 26.9494 6.03098 26.9189 5.94917C26.8886 5.86763 26.858 5.78609 26.8276 5.70562C26.7964 5.62275 26.7655 5.54134 26.7353 5.46206C26.7033 5.37773 26.6719 5.2958 26.6422 5.21851C26.6087 5.13086 26.5773 5.04932 26.5487 4.97495C26.5118 4.8792 26.4801 4.7966 26.4552 4.7314C26.4365 4.68239 26.4214 4.64242 26.4116 4.61546L25.9253 3.29131C25.7789 3.36342 25.6338 3.43766 25.4896 3.51362C25.3394 3.59277 25.1905 3.67391 25.043 3.75718C25.0072 3.77736 24.971 3.79702 24.9354 3.81747L27.1438 7.65286C27.2326 7.60612 27.2944 7.5364 27.3217 7.4105C27.3321 7.36269 27.3379 7.30732 27.3379 7.24131C27.3379 7.22392 27.3342 7.19855 27.3277 7.16695C27.3155 7.10705 27.2923 7.02379 27.2612 6.92339ZM30.6364 1.80873L30.6235 1.73543C30.4962 1.7588 30.3691 1.78284 30.2428 1.80873C29.8974 1.87978 29.5561 1.96185 29.2182 2.05229C28.9389 2.12706 28.6624 2.2082 28.3886 2.29584C28.2068 2.35401 28.0263 2.41536 27.8469 2.47911L27.8638 2.5394L28.6079 5.21851L28.6153 5.24533H28.6367L29.531 2.06437H30.6813L30.6364 1.80873ZM37.1436 1.7349L34.2323 18.2854L38 7.90784V1.91312C37.843 1.87646 37.6853 1.8414 37.5267 1.80873C37.3995 1.78257 37.2717 1.7584 37.1436 1.7349ZM30.8554 1.69519L30.9203 2.06437H31.7135L31.1945 3.51362L31.1815 3.54974L33.7651 18.2438L33.7657 1.44114C33.0882 1.44553 32.4194 1.48776 31.7612 1.56518C31.4569 1.60104 31.155 1.64433 30.8554 1.69519Z" fill="#262626"/>
<path d="M12.5903 17.1455V15.0535C12.6435 15.032 12.718 14.9788 12.7819 14.936C12.9735 14.8079 13.1865 14.5838 13.1865 14.3169C13.1865 13.6338 12.3773 13.4844 11.9195 13.4844H11.4085V13.5058C11.8982 13.8473 12.1751 14.3597 12.1751 14.9894C12.1751 16.6226 10.9614 17.3591 9.48142 17.3591C8.04416 17.3591 6.84114 16.5372 6.84114 14.9574C6.84114 14.3383 7.08598 13.7512 7.65024 13.5058V13.4844H6.97955V11.3709H11.7917C12.8884 11.3709 14.4321 11.659 14.4321 14.2529C14.4321 15.5657 14.0808 16.9534 12.5903 17.1455ZM10.972 23.7598C9.22597 23.7598 9.28976 21.7104 9.08756 20.6322C9.03431 20.344 8.94915 20.0558 8.59781 20.0558C8.22515 20.0558 8.08674 20.4082 8.08674 20.7497C8.08674 21.4007 8.41681 21.5289 8.65106 21.5395V23.5035C7.09659 23.4395 6.84114 21.9664 6.84114 20.6534C6.84114 18.0063 7.93767 18.0277 9.00233 18.0277H11.2701C11.6853 18.0277 12.1537 18.0063 12.5051 17.7716V19.9278C12.356 19.9811 12.1324 20.0131 11.9834 20.0025V20.0238C12.4944 20.4722 12.6435 21.1233 12.6435 21.8064C12.6435 22.8737 12.1324 23.7598 10.972 23.7598ZM12.5051 8.36427V10.4779H6.97955V8.36427H12.5051ZM9.07684 1.92108V3.92782C8.85331 3.9492 8.67232 4.02384 8.55522 4.16261C8.43809 4.29077 8.37417 4.47217 8.37417 4.69634C8.37417 5.50761 9.07684 5.62501 9.74759 5.62501C10.4184 5.62501 11.1104 5.50761 11.1104 4.69634C11.1104 4.23738 10.7377 3.9172 10.3012 3.87444V1.85707C11.8025 2.05986 12.6435 3.2447 12.6435 4.73897C12.6435 6.40414 11.4937 7.73838 9.74759 7.73838C8.00157 7.73838 6.84114 6.40414 6.84114 4.73897C6.84114 3.28733 7.55442 2.0491 9.07684 1.92108ZM16.2226 5.42674C14.615 5.14918 13.9656 4.63684 13.9656 3.68679C13.9656 2.28841 15.4668 1.9256 16.574 1.9256C17.7663 1.9256 19.2035 2.2564 19.2568 3.67617H17.3405C17.3299 3.49476 17.234 3.35599 17.0955 3.25984C16.9678 3.15307 16.7975 3.09968 16.6271 3.09968C16.3291 3.09968 15.9884 3.16383 15.9884 3.52677C15.9884 3.68679 16.1162 3.76156 16.2333 3.81481C16.5846 3.96434 17.383 4.00697 18.0857 4.2419C18.7884 4.46606 19.4058 4.88239 19.4058 5.78968C19.4058 7.3267 17.9367 7.74303 16.5952 7.74303C15.2964 7.74303 13.8698 7.22007 13.8379 5.78968H15.85C15.8606 5.98184 15.9458 6.14186 16.1055 6.28064C16.212 6.37665 16.4143 6.4408 16.6698 6.4408C16.9465 6.4408 17.383 6.33403 17.383 6.01384C17.383 5.69366 17.202 5.59752 16.2226 5.42674ZM19.9224 31.4913L19.5255 31.8251L19.3743 31.6442L19.7703 31.311C19.141 30.5506 18.5721 29.7384 18.0698 28.8824L17.6251 29.1398L17.5074 28.9354L17.9511 28.6785C17.4636 27.8229 17.0429 26.9244 16.6958 25.9903L16.2186 26.1644L16.1381 25.9426L16.6152 25.7685C16.2851 24.8443 16.0266 23.8865 15.8469 22.9011L15.3489 22.9891L15.308 22.7567L15.8068 22.6685C15.644 21.7058 15.5562 20.7179 15.5496 19.7108H15.0422V19.4748H15.5494C15.5555 18.4677 15.6431 17.4797 15.8052 16.5167L15.308 16.4288L15.3489 16.1964L15.8452 16.2842C16.0243 15.2986 16.2826 14.3405 16.6123 13.4161L16.1381 13.2431L16.2186 13.0213L16.6926 13.1942C17.0395 12.2596 17.4599 11.3608 17.9473 10.5046L17.5075 10.2502L17.6252 10.0455L18.0657 10.3006C18.568 9.44407 19.1366 8.63133 19.766 7.87039L19.3744 7.54104L19.5258 7.36017L19.918 7.69018C19.9423 7.66163 19.966 7.63268 19.9905 7.60426H19.8476V0.0188576H4.88453V8.36029H6.39227V10.4847H4.88453V33.3778H6.97955V31.4526H7.71414V31.4314C7.07533 31.0044 6.84114 30.3853 6.84114 29.6168C6.84114 29.0191 7.14984 28.3784 7.70349 28.1224C7.63958 28.0369 6.84114 27.6099 6.84114 26.233C6.84114 24.8134 7.82063 24.3331 8.71496 24.3331H12.5051V26.4466H9.5134C8.99168 26.4466 8.5233 26.4998 8.5233 27.1403C8.5233 27.674 8.93849 27.8556 9.5134 27.8556H12.5051V29.9689H9.5134C8.99168 29.9689 8.5233 30.0224 8.5233 30.6628C8.5233 31.1966 8.93849 31.3778 9.5134 31.3778H12.5051V33.3778H21.772C21.1116 32.794 20.4933 32.1635 19.9224 31.4913Z" fill="#262626"/>
<path d="M1.97632 1.78895C1.94114 1.79439 1.90621 1.79439 1.87102 1.79692H1.71967V1.21499H1.94114C2.04126 1.2203 2.08435 1.2284 2.12767 1.25562C2.21941 1.31498 2.22226 1.46678 2.22226 1.48563C2.22226 1.5426 2.21124 1.59931 2.18966 1.64805C2.14914 1.73755 2.08172 1.7754 1.97632 1.78895ZM2.46255 2.35481C2.45443 2.17075 2.45158 2.09492 2.39508 2.01365C2.34913 1.94871 2.29506 1.92972 2.21941 1.90794C2.30049 1.87288 2.36802 1.84313 2.42483 1.76996C2.48936 1.68882 2.50022 1.58576 2.50022 1.47753C2.50022 1.12017 2.31119 1.03079 2.15443 1.00091C2.0736 0.987367 1.952 0.984844 1.93855 0.984844H1.43085V2.88813H1.72252V2.02453C1.86543 2.02188 1.9682 2.02453 2.02754 2.04074C2.14914 2.07327 2.16 2.2086 2.1626 2.23834L2.17077 2.32785C2.17631 2.37114 2.17889 2.41709 2.18149 2.46038C2.19235 2.67154 2.18432 2.68243 2.23565 2.89105L2.5516 2.89358C2.51642 2.81244 2.49753 2.76901 2.48418 2.68243C2.46518 2.57685 2.46518 2.46317 2.46255 2.35481Z" fill="#D4D4D4"/>
<path d="M1.9207 3.7184C0.933183 3.7184 0.132462 2.91562 0.132462 1.9256C0.132462 0.93531 0.933183 0.1328 1.9207 0.1328C2.90821 0.1328 3.70893 0.93531 3.70893 1.9256C3.70893 2.91562 2.90821 3.7184 1.9207 3.7184ZM1.9207 0C0.859968 0 0 0.862004 0 1.9256C0 2.98906 0.859968 3.8512 1.9207 3.8512C2.98143 3.8512 3.84139 2.98906 3.84139 1.9256C3.84139 0.862004 2.98143 0 1.9207 0ZM7.06684 38.7643L6.61181 36.1027H6.16252L5.67294 38.7817C5.62699 38.4123 5.5751 38.0426 5.5118 37.6731C5.42535 37.1477 5.3274 36.6282 5.22381 36.1027H4.88401L5.40811 38.9376H5.93228C6.01847 38.4814 6.11078 38.0253 6.18561 37.5635C6.25469 37.165 6.31222 36.7666 6.36417 36.3625C6.41591 36.7148 6.46213 37.0668 6.51965 37.419C6.60018 37.9215 6.70401 38.4296 6.80186 38.932L7.2914 38.9376L7.86156 36.1027H7.54484L7.06684 38.7643ZM10.1835 38.7643L9.72845 36.1027H9.27911L8.78957 38.7817C8.74357 38.4123 8.69172 38.0426 8.62839 37.6731C8.54192 37.1477 8.44409 36.6282 8.34044 36.1027H8.00059L8.5247 38.9376H9.04885C9.13521 38.4814 9.22732 38.0253 9.30224 37.5635C9.37132 37.165 9.4289 36.7666 9.4808 36.3625C9.53255 36.7148 9.5787 37.0668 9.6363 37.419C9.71681 37.9215 9.8206 38.4296 9.91844 38.932L10.408 38.9376L10.9782 36.1027H10.6614L10.1835 38.7643ZM13.3001 38.7643L12.8451 36.1027H12.3957L11.9063 38.7817C11.8602 38.4123 11.8083 38.0426 11.745 37.6731C11.6585 37.1477 11.5607 36.6282 11.4571 36.1027H11.1172L11.6413 38.9376H12.1655C12.2517 38.4814 12.344 38.0253 12.4188 37.5635C12.4879 37.165 12.5455 36.7666 12.5973 36.3625C12.6491 36.7148 12.6953 37.0668 12.7529 37.419C12.8334 37.9215 12.9372 38.4296 13.0351 38.932L13.5246 38.9376L14.0947 36.1027H13.778L13.3001 38.7643ZM14.2338 38.9202H14.6773V38.4584H14.2338V38.9202ZM18.1101 36.9515C18.1101 36.9283 18.1159 36.6914 18.0755 36.5413C18.0237 36.3508 17.8797 36.1719 17.6896 36.1083C17.6492 36.0909 17.5687 36.0738 17.4534 36.0738C17.1482 36.0738 17.0504 36.1545 16.8603 36.3855C16.7452 36.2525 16.653 36.1429 16.4859 36.0909C16.3996 36.062 16.2959 36.062 16.267 36.062C15.933 36.062 15.7774 36.247 15.6912 36.3394L15.6853 36.1083H15.3628V38.9202H15.7084V36.9515C15.7084 36.7782 15.7084 36.6282 15.8063 36.5011C15.8869 36.397 16.0136 36.3278 16.1576 36.3278C16.2037 36.3278 16.29 36.3335 16.3822 36.3855C16.5436 36.4722 16.5493 36.6167 16.555 36.8011V38.9262H16.9064V36.9573C16.9005 36.784 16.9005 36.6451 17.0043 36.5124C17.0906 36.4028 17.2173 36.3335 17.3556 36.3335C17.3958 36.3335 17.5054 36.3394 17.6033 36.4085C17.7703 36.5241 17.7645 36.6974 17.7588 36.9051V38.932H18.1101V36.9515ZM19.6025 38.6546C19.5046 38.7125 19.4009 38.724 19.3606 38.724C19.1936 38.724 19.0496 38.6259 18.992 38.4584C18.9575 38.3718 18.9575 38.291 18.9575 38.2506C18.9575 38.0832 18.9805 37.9042 18.992 37.8636C19.0152 37.7598 19.0611 37.6963 19.0842 37.6675C19.2684 37.4709 19.6197 37.4654 19.6716 37.4654H19.8156V37.806C19.8156 37.9215 19.8272 38.037 19.8272 38.1522C19.8272 38.2218 19.8329 38.5046 19.6025 38.6546ZM20.1555 36.9399C20.1555 36.5818 20.121 36.4605 20.0172 36.3278C19.8848 36.1719 19.6601 36.0738 19.447 36.0738C19.2743 36.0738 19.1244 36.1315 19.0668 36.1545C19.0209 36.1775 18.8941 36.2238 18.802 36.3452C18.6522 36.5531 18.6868 36.8878 18.6868 36.9339H19.0152C19.0496 36.6048 19.0496 36.4722 19.2166 36.3912C19.3202 36.3394 19.4355 36.3335 19.47 36.3335C19.6486 36.3335 19.7465 36.4375 19.7752 36.5011C19.8156 36.5645 19.8215 36.6395 19.8272 36.813V37.2114C19.5564 37.2283 19.1878 37.2402 18.9459 37.3962C18.6753 37.575 18.6694 37.8522 18.6637 37.9619C18.6522 38.0426 18.6465 38.1234 18.6465 38.2046C18.6465 38.4988 18.7271 38.6661 18.8077 38.7587C18.9228 38.8972 19.1014 38.9608 19.2858 38.9608C19.5392 38.9608 19.6889 38.8453 19.7638 38.7817C19.7926 38.7587 19.8215 38.7355 19.8444 38.7125L19.8502 38.932H20.1901L20.1555 38.6546V36.9399ZM21.8836 38.4469C21.8031 38.5681 21.6533 38.6546 21.4978 38.6546C21.4517 38.6546 21.3481 38.6488 21.2502 38.574C21.0716 38.4469 21.0601 38.2852 21.0544 37.9042V37.1303C21.0544 36.9167 21.0428 36.5355 21.2156 36.3912C21.3078 36.3163 21.4286 36.3104 21.469 36.3104C21.6131 36.3104 21.7224 36.374 21.7685 36.397C21.9471 36.5241 21.9643 36.7204 21.9816 36.9454V37.9042C21.9816 38.0659 21.9816 38.3025 21.8836 38.4469ZM22.3041 36.1083H21.9932V36.3855C21.8203 36.1661 21.7166 36.0564 21.4229 36.0564C21.3135 36.0564 21.0947 36.062 20.9103 36.27C20.7491 36.4549 20.7376 36.6511 20.7317 36.8878V37.8578C20.726 38.2679 20.7491 38.4759 20.8585 38.6432C20.9737 38.8105 21.1811 38.8972 21.3942 38.8972C21.5554 38.8972 21.7628 38.8453 21.8722 38.7299C21.9124 38.6836 21.97 38.5971 21.97 38.5971L21.9758 39.03C21.97 39.0993 21.9643 39.1745 21.9643 39.2494C21.9528 39.3996 21.9586 39.5267 21.8434 39.6305C21.7974 39.6768 21.682 39.7575 21.5036 39.7575C21.3999 39.7575 21.3192 39.7288 21.2846 39.717C21.1119 39.6422 21.089 39.4919 21.0832 39.3072H20.7433C20.7491 39.4629 20.7606 39.5208 20.7837 39.596C20.9103 39.9827 21.325 40 21.4401 40C21.5669 40 21.7052 39.9769 21.7398 39.9711C21.8895 39.9425 22.1948 39.8731 22.281 39.4574C22.3041 39.342 22.3041 39.1861 22.3041 39.059V36.1083ZM22.9152 35.2711H23.2722V34.89H22.9152V35.2711ZM22.9266 38.9202H23.2664V36.1027H22.9266V38.9202ZM24.862 38.6202C24.7583 38.6895 24.6547 38.7009 24.6086 38.7009C24.4992 38.7009 24.4301 38.6606 24.3955 38.6432C24.2804 38.5796 24.2401 38.4988 24.2054 38.239V36.8764C24.2054 36.6684 24.1997 36.4894 24.3668 36.3796C24.4703 36.3162 24.5741 36.3104 24.6259 36.3104C24.77 36.3104 24.914 36.374 24.9714 36.4953C25.0118 36.5877 25.0118 36.7204 25.0118 36.9515L25.3459 36.9573C25.3573 36.6395 25.3573 36.3912 25.0982 36.195C24.9658 36.0969 24.8276 36.0506 24.6719 36.0506C24.5568 36.0506 24.4416 36.0738 24.3264 36.1027C24.2171 36.1315 23.9694 36.2064 23.8887 36.5241C23.8715 36.5818 23.8598 36.6798 23.8598 36.7378V38.1756C23.8655 38.3947 23.8772 38.6144 24.0153 38.7587C24.1018 38.8511 24.2918 38.9665 24.5856 38.9665C24.8333 38.9665 25.0924 38.9087 25.2307 38.6895C25.3516 38.5046 25.3516 38.291 25.3516 38.0659L25.006 38.06C25.006 38.3891 25.0002 38.5161 24.862 38.6202ZM25.8013 37.4364H27.097V37.1477H25.8013V37.4364ZM28.8139 37.6269C28.618 37.4076 28.2954 37.2862 28.0997 37.061C28.0133 36.9629 27.9672 36.8533 27.9672 36.7204C27.9672 36.5067 28.1112 36.3278 28.3185 36.3278C28.3646 36.3278 28.4683 36.3335 28.5547 36.4144C28.693 36.5413 28.693 36.703 28.687 36.8823H29.0154C29.0212 36.703 29.0097 36.6048 28.9923 36.5299C28.9636 36.4085 28.9061 36.3219 28.8714 36.2873C28.6987 36.0679 28.4625 36.0738 28.3761 36.0738C27.9211 36.0738 27.7541 36.2586 27.6849 36.449C27.6331 36.5818 27.6331 36.6914 27.6331 36.7493C27.6331 36.8589 27.6505 37.1132 27.8463 37.3209C27.9787 37.4594 28.1573 37.552 28.3243 37.6731C28.5259 37.8116 28.7045 37.9675 28.7102 38.239C28.7102 38.4873 28.5488 38.6951 28.2954 38.7009C28.2034 38.7009 28.1112 38.6661 28.0479 38.6085C27.9096 38.4759 27.9096 38.262 27.9096 38.2101V38.0832H27.5755C27.564 38.2852 27.5755 38.3833 27.5986 38.4759C27.6331 38.6144 27.7023 38.6951 27.7367 38.7413C27.8232 38.8395 27.9672 38.9435 28.261 38.9492C28.7045 38.9492 28.8714 38.7643 28.9521 38.5914C29.0154 38.441 29.0269 38.2679 29.0269 38.216C29.0269 38.1119 29.004 37.8404 28.8139 37.6269ZM30.2253 37.3035L31.0259 36.0969H30.6572L29.8739 37.3383L30.7378 38.9087H31.1526L30.2253 37.3035ZM29.5341 38.9145H29.851V34.8496H29.5341V38.9145ZM32.5295 37.6501C32.6677 37.1363 32.8001 36.6224 32.9325 36.1083L32.5929 36.1027C32.5295 36.3855 32.472 36.6626 32.4027 36.9339C32.3337 37.1938 32.2644 37.4537 32.2012 37.7133C32.1379 37.9907 32.0861 38.2793 32.0397 38.5682C32.0052 38.3489 31.9706 38.1351 31.9248 37.9157C31.8728 37.6501 31.8038 37.3902 31.7404 37.1246C31.6598 36.784 31.579 36.4434 31.5043 36.1027H31.1415L31.8728 38.8798L31.5733 39.9308H31.9478C32.0284 39.5498 32.1147 39.1745 32.2127 38.805C32.3106 38.4181 32.4257 38.0369 32.5295 37.6501ZM33.1863 38.9202H33.6299V38.4584H33.1863V38.9202ZM35.3522 38.5854C35.2772 38.6546 35.1738 38.7009 35.0699 38.7009C35.0182 38.7009 34.9144 38.6951 34.8165 38.6259C34.6149 38.4988 34.6149 38.2448 34.6149 37.9907C34.6149 37.8002 34.6149 37.6153 34.6206 37.4364C34.6206 37.0436 34.6092 36.7148 34.6669 36.5531C34.7302 36.4028 34.8972 36.3162 35.0699 36.3162C35.2486 36.3162 35.4212 36.4085 35.4847 36.5645C35.525 36.674 35.548 36.8823 35.5365 37.165C35.5365 37.2343 35.5308 37.2979 35.5308 37.3672C35.525 37.5403 35.5249 37.7078 35.5249 37.8752C35.5249 38.1292 35.548 38.4066 35.3522 38.5854ZM35.8648 34.8552H35.5365V36.27C35.3522 36.1545 35.2024 36.0564 34.9721 36.0564C34.6552 36.0564 34.494 36.247 34.425 36.3452C34.2982 36.5531 34.2924 36.7666 34.2924 37.0032V38.2506C34.3099 38.4526 34.327 38.603 34.4536 38.7529C34.6323 38.955 34.8626 38.978 34.9607 38.978C35.2141 38.9724 35.3637 38.8453 35.5423 38.6836V38.9262H35.8648V34.8552ZM36.7754 36.8823C36.7754 36.6684 36.7983 36.5067 36.9767 36.397C37.0863 36.3278 37.1957 36.3162 37.2419 36.3162C37.3799 36.3162 37.5125 36.374 37.576 36.4894C37.6737 36.6684 37.6392 37.1707 37.6335 37.3786H36.7754V36.8823ZM37.6392 38.037C37.6335 38.3891 37.5989 38.5506 37.4492 38.6432C37.3799 38.6836 37.2994 38.7009 37.2187 38.7009C37.1265 38.7009 37.0231 38.6722 36.9481 38.6202C36.8043 38.5161 36.7926 38.3833 36.7868 38.2046C36.7811 38.0197 36.7811 37.8348 36.7811 37.6501H37.956V37.2283C37.956 36.784 37.9675 36.5645 37.8581 36.3796C37.7832 36.2586 37.6106 36.062 37.2533 36.062C37.2301 36.062 37.1439 36.0679 37.0634 36.0795C36.9655 36.0969 36.6314 36.1545 36.5046 36.4894C36.4759 36.5645 36.4701 36.6107 36.4527 36.7723V38.2218C36.4759 38.5278 36.4989 38.7413 36.7868 38.8798C36.9655 38.9608 37.1265 38.9665 37.1957 38.9665C37.3168 38.9665 37.4837 38.9435 37.5989 38.8972C37.9617 38.7473 37.9734 38.3833 37.9675 38.0426L37.6392 38.037Z" fill="#D4D4D4"/>
</svg>
