<svg width="138" height="40" viewBox="0 0 138 40" fill="none" xmlns="http://www.w3.org/2000/svg">
<path fill-rule="evenodd" clip-rule="evenodd" d="M22.311 16.7825H26.0366L29.2728 22.9055L31.8312 16.7825H35.1265L31.016 26.4328H27.5461L22.311 16.7825Z" fill="#D4D4D4"/>
<path fill-rule="evenodd" clip-rule="evenodd" d="M42.1268 23.3521C42.2822 23.08 42.3605 22.6925 42.3605 22.2281V21.6469C41.5274 21.9176 39.743 22.3257 39.3361 22.7132C38.9291 23.1199 38.8728 23.7011 39.3361 24.1285C39.5285 24.303 39.8214 24.3992 40.2283 24.3992C40.9844 24.3992 41.7763 24.0309 42.1282 23.3535L42.1268 23.3521ZM43.2706 16.5297C43.9484 16.6658 44.5107 16.9172 44.9561 17.3047C45.2668 17.5754 45.5225 17.9835 45.693 18.4672C45.8882 18.9715 45.9665 19.4552 45.9665 19.9004V24.1834C45.9665 24.6286 46.0037 24.9777 46.082 25.2305C46.1411 25.5012 46.2594 25.831 46.4518 26.2185H42.9613C42.7276 25.9079 42.6135 25.5012 42.5764 25.0368C41.5096 26.0646 40.3067 26.4315 38.8522 26.4315C37.1268 26.4315 35.3231 25.6372 35.3231 23.6599C35.3231 22.9426 35.5349 22.3229 35.9445 21.8571C36.3886 21.3734 37.1667 21.0436 38.3284 20.8114C39.5093 20.5792 40.0537 20.4431 40.7122 20.2879C41.39 20.1518 41.6415 20.0557 42.3605 19.7643C42.3605 19.3191 42.2451 18.9894 42.0677 18.8148C41.5646 18.349 40.2462 18.4851 39.7045 18.8341C39.4708 18.9894 39.2976 19.2807 39.1381 19.6874L35.594 19.3191C35.7273 18.6994 35.9239 18.2144 36.1727 17.8461C36.4463 17.4971 36.7941 17.2071 37.2602 16.9351C37.608 16.7606 38.0713 16.5861 38.6748 16.4885C40.1486 16.2563 41.7955 16.2755 43.2693 16.527L43.2706 16.5297Z" fill="#D4D4D4"/>
<path fill-rule="evenodd" clip-rule="evenodd" d="M51.1233 16.7825V18.3518C51.6264 17.7128 52.1489 17.247 52.6713 16.9763C53.1964 16.7056 53.8563 16.5503 54.5932 16.5503C55.6188 16.5503 56.434 16.8801 57.0183 17.4806C57.5998 18.1003 57.8885 19.0113 57.8885 20.2906V26.4328H54.167V21.1233C54.167 20.5228 54.0488 20.0955 53.8371 19.844C53.6034 19.5926 53.2748 19.4758 52.8857 19.4758C52.4417 19.4758 52.0526 19.6311 51.7818 19.9801C51.5082 20.3099 51.3749 20.9296 51.3749 21.8021V26.4328H47.6905V16.7825H51.1233Z" fill="#D4D4D4"/>
<path fill-rule="evenodd" clip-rule="evenodd" d="M64.3045 16.549H66.3625V19.2807H64.3045V22.6912C64.3045 23.1171 64.3444 23.3892 64.4227 23.5046C64.5588 23.7176 64.7705 23.8152 65.0634 23.8152C65.3342 23.8152 65.7219 23.7382 66.2264 23.583L66.478 26.1402C65.5665 26.3339 64.7334 26.4301 63.9196 26.4301C62.9875 26.4301 62.3303 26.3133 61.8835 26.0811C61.4574 25.8488 61.1247 25.4998 60.9322 24.9955C60.6985 24.5311 60.6023 23.7355 60.6023 22.6513V19.2793H59.2248V16.5476H60.6023V14.7846L64.3045 12.8856V16.549Z" fill="#D4D4D4"/>
<path fill-rule="evenodd" clip-rule="evenodd" d="M23.3407 10.775C23.3971 10.5812 23.6115 10.1745 23.5744 10.0385V10L23.3792 10.0192C23.3008 10.0577 23.2459 10.0976 23.1867 10.136C23.0121 10.2528 22.9159 10.349 22.7798 10.562C22.7798 10.6582 22.8018 10.7365 22.8018 10.8327C22.898 10.8519 23.0506 10.8327 23.1867 10.8135C23.2266 10.7942 23.283 10.7942 23.3421 10.775H23.3407ZM25.6283 10.3105C25.7246 10.3105 25.7837 10.3298 25.862 10.3683C25.8813 10.4452 25.8991 10.5428 25.862 10.6197C25.8029 10.698 25.7658 10.7558 25.7067 10.8135H25.6283L25.5884 10.8327C25.4551 10.7544 25.3767 10.6967 25.3767 10.5029C25.4139 10.426 25.4358 10.3669 25.473 10.3092H25.6283V10.3105ZM25.6283 12.0928C25.8799 11.899 26.1315 11.6475 26.3061 11.4332H26.3253C26.3652 11.4524 26.3652 11.4717 26.3844 11.4923C26.4243 11.55 26.4243 11.686 26.3844 11.7822C26.1727 12.112 25.9363 12.248 25.6297 12.461C25.6077 12.4995 25.5706 12.5187 25.5335 12.538C25.2997 12.7317 25.1444 13.1192 24.9712 13.4105C24.8928 13.585 24.776 13.934 24.5423 13.9148C24.468 13.8571 24.446 13.7211 24.3677 13.6441C24.0597 13.7595 24.1559 13.8763 24.0006 14.0893C23.9044 14.2061 23.7861 14.3023 23.6899 14.3985C23.6335 14.5538 23.5566 14.709 23.4974 14.8437C23.4191 14.9605 23.3022 15.0374 23.1867 15.1144C22.953 15.2697 22.6836 15.3851 22.4691 15.5596C22.3536 15.6572 22.2354 15.7726 22.1213 15.8894C21.9467 15.9663 21.5219 15.9086 21.3473 16.0447C21.2483 16.2384 21.3074 16.4899 21.192 16.685C20.8029 17.2855 20.0069 17.6537 19.4666 18.158C19.2714 18.4095 19.0776 18.6623 18.8631 18.9138C18.3998 19.3013 17.9736 19.5143 17.7592 20.1147C17.6231 20.134 17.5255 20.1738 17.4292 20.1931C17.2368 20.4445 17.0594 20.6974 16.867 20.9296C16.6332 21.2195 16.2854 21.4723 16.0531 21.8021C15.5499 22.4218 14.8131 22.9839 14.2315 23.5651C14.0762 23.7588 13.9016 23.9526 13.7655 24.1656C13.6321 24.3016 13.4356 24.3786 13.3214 24.5146C12.8953 25.0766 12.6038 26.0453 11.9068 26.3751C11.5178 26.5689 11.2442 26.2583 10.9953 26.2776C10.818 26.2776 10.6035 26.2968 10.4331 26.316C10.044 26.3353 9.77044 26.3738 9.42262 26.3738C9.44187 26.1223 9.61784 25.7733 9.57797 25.5795C9.54085 25.3473 9.34426 25.2305 9.24802 25.0752C9.19166 24.9007 9.1298 24.7262 9.05556 24.5517C8.9772 24.3002 9.07481 23.7959 8.99644 23.6022C8.91808 23.5445 8.86309 23.5046 8.78198 23.4469C8.62938 23.2339 8.5304 22.7489 8.64863 22.3614C8.86309 21.6441 9.96703 20.597 10.5857 20.1711C10.9156 19.9773 11.2662 19.7836 11.614 19.5898C12.1763 19.2023 12.6024 18.5043 13.0877 18.0206C13.7091 17.3817 14.347 16.7413 14.9877 16.1024C15.3547 15.8317 15.7245 15.5596 16.0916 15.2889C16.5796 14.9206 17.2175 14.0495 17.876 13.9327C17.9159 14.2418 18.0905 14.437 18.1867 14.6692C18.4012 14.6115 18.4383 14.3971 18.5167 14.2047C18.4576 14.1072 18.2458 13.798 18.4012 13.6235C18.6308 13.4875 18.8645 13.7004 19.0006 13.6043C19.3677 13.4297 19.545 13.2552 19.6591 12.81C20.1623 12.5586 20.6297 12.1903 20.9775 11.8028C21.093 11.6668 21.192 11.5514 21.2882 11.4346C21.4435 11.3384 21.559 11.3961 21.7542 11.3191C21.966 11.2408 22.0649 11.1061 22.3536 11.0086C22.3935 11.7836 21.3281 11.5706 21.1507 12.1711C21.17 12.1711 21.1906 12.1903 21.2098 12.1903C21.658 12.0735 22.0649 11.9773 22.4127 11.686C22.4911 11.5898 22.5873 11.4923 22.6836 11.3961C22.8582 11.3576 23.0135 11.3384 23.1867 11.2985C23.2651 11.2793 23.3421 11.2793 23.4204 11.26C23.6349 11.1817 23.9236 10.8726 24.2164 10.7173C24.7567 10.8726 24.446 12.2865 24.1353 12.6946C24.002 12.8499 23.7091 12.8691 23.5359 13.0038C23.4204 13.1206 23.3242 13.236 23.228 13.3528V13.5465C23.3806 13.7211 23.8068 13.6441 24.0982 13.4888C24.2343 13.4119 24.1972 13.2374 24.3127 13.1206C24.4089 13.0244 24.5423 13.0038 24.6234 12.8884C24.7196 12.7523 24.798 12.6369 24.8942 12.5201C25.0688 12.4225 25.2613 12.3263 25.4166 12.2302C25.495 12.1917 25.572 12.1326 25.6311 12.0941L25.6283 12.0928Z" fill="#D4D4D4"/>
<path fill-rule="evenodd" clip-rule="evenodd" d="M16.9618 21.607L19.6577 26.3738H23.6707L19.523 18.933C19.4446 19.0306 19.3869 19.1268 19.2865 19.2422L19.1903 19.3397C19.0748 19.4373 18.9978 19.495 18.9016 19.5527C18.6088 19.7657 18.3572 19.9402 18.2431 20.2892L18.1469 20.5599L17.8925 20.6177C17.8362 20.6369 17.7963 20.6561 17.7399 20.6561C17.2918 21.2181 17.9516 20.3854 17.5447 20.8884C17.4664 21.0052 17.3701 21.1206 17.2739 21.2374V21.2566C17.1777 21.3734 17.0814 21.4696 16.9632 21.6056L16.9618 21.607ZM0 26.3738H4.03218L12.2519 13.2168L13.9965 16.3181C14.0093 16.3181 14.0157 16.3117 14.0157 16.2989C14.2302 16.1244 14.4226 15.9306 14.6151 15.7369L14.677 15.6778C14.8887 15.5225 15.1031 15.348 15.3327 15.1927L15.7809 14.8822C15.8964 14.786 16.0325 14.6499 16.17 14.5139C16.3445 14.3394 16.537 14.1457 16.7295 13.9711L14.4996 10.0192H10.1939L0 26.3738Z" fill="#D4D4D4"/>
<path fill-rule="evenodd" clip-rule="evenodd" d="M127.645 23.6228L131.348 23.2738C131.503 23.6998 131.715 24.0295 131.988 24.2041C132.259 24.3978 132.626 24.4954 133.092 24.4954C133.595 24.4954 133.984 24.3786 134.255 24.1656C134.47 24.0103 134.566 23.8166 134.566 23.5843C134.566 23.3123 134.43 23.0993 134.159 22.9646C133.947 22.8478 133.422 22.7324 132.549 22.5771C131.253 22.3449 130.36 22.1305 129.857 21.9382C129.35 21.7444 128.925 21.4339 128.576 20.9694C128.228 20.5036 128.054 20.0007 128.054 19.4002C128.054 18.7613 128.246 18.2185 128.613 17.754C128.983 17.2882 129.505 16.9406 130.168 16.707C130.806 16.4748 131.679 16.358 132.783 16.358C133.949 16.358 134.801 16.4555 135.363 16.6287C135.903 16.8032 136.371 17.0739 136.741 17.4614C137.108 17.8296 137.418 18.3339 137.67 18.9536L134.12 19.3219C134.024 18.9921 133.891 18.7791 133.676 18.6238C133.366 18.4301 133.018 18.3339 132.61 18.3339C132.201 18.3339 131.873 18.4122 131.68 18.5469C131.485 18.7022 131.387 18.8959 131.387 19.1089C131.387 19.3411 131.524 19.5156 131.757 19.6324C132.009 19.7685 132.531 19.8647 133.364 19.9814C134.586 20.1175 135.519 20.3112 136.119 20.5627C136.719 20.8142 137.186 21.1632 137.515 21.629C137.825 22.0948 138 22.5977 138 23.1597C138 23.7217 137.825 24.2645 137.478 24.8073C137.148 25.3308 136.605 25.7568 135.886 26.0673C135.149 26.3765 134.16 26.5318 132.901 26.5318C131.117 26.5318 129.857 26.2803 129.103 25.776C128.344 25.2717 127.858 24.5558 127.648 23.6256L127.645 23.6228ZM124.485 12.887V16.5874H126.521V19.2999H124.485V22.7489C124.485 23.1749 124.525 23.4469 124.6 23.5816C124.718 23.7753 124.93 23.8908 125.241 23.8908C125.514 23.8908 125.899 23.8138 126.385 23.6393L126.677 26.2171C125.748 26.4301 124.893 26.5277 124.079 26.5277C123.15 26.5277 122.472 26.4109 122.043 26.1594C121.599 25.9272 121.269 25.5589 121.055 25.0739C120.843 24.5888 120.747 23.8138 120.747 22.7296V19.2999H119.369V16.5874H120.747V14.786L124.486 12.887H124.485ZM110.759 16.5888H114.247V18.1773C114.577 17.4792 114.927 17.0148 115.294 16.7427C115.642 16.4912 116.09 16.3552 116.613 16.3552C117.135 16.3552 117.757 16.5297 118.417 16.8787L117.253 19.5335C116.827 19.3397 116.477 19.2628 116.209 19.2628C115.721 19.2628 115.354 19.4565 115.08 19.8633C114.695 20.4253 114.498 21.4916 114.498 23.0416V26.2968H110.759V16.5888ZM101.492 21.4517C101.492 22.3243 101.666 22.9632 102.014 23.3892C102.366 23.7959 102.81 24.0089 103.333 24.0089C103.855 24.0089 104.321 23.7959 104.651 23.3892C105.003 22.9825 105.173 22.3243 105.173 21.4325C105.173 20.5407 105.003 19.9595 104.651 19.5335C104.303 19.1268 103.877 18.933 103.374 18.933C102.829 18.933 102.366 19.1268 102.016 19.5527C101.668 19.9787 101.493 20.5984 101.493 21.4517H101.492ZM97.7483 21.4723C97.7483 19.9993 98.2556 18.7599 99.24 17.8104C100.25 16.8416 101.606 16.3566 103.312 16.3566C105.252 16.3566 106.726 16.9186 107.711 18.0618C108.529 18.9729 108.917 20.0969 108.917 21.4146C108.917 22.9069 108.429 24.1463 107.443 25.0958C106.433 26.0453 105.074 26.5304 103.312 26.5304C101.761 26.5304 100.483 26.1237 99.5314 25.3294C98.3285 24.3607 97.747 23.0622 97.747 21.4737L97.7483 21.4723ZM89.4517 21.4723C89.4517 22.2473 89.607 22.8093 89.9369 23.1776C90.2669 23.5651 90.6738 23.7396 91.1591 23.7396C91.6032 23.7396 91.9523 23.5651 92.2438 23.1968C92.5545 22.8478 92.6878 22.2473 92.6878 21.394C92.6878 20.5998 92.5352 20.0186 92.2246 19.6503C91.9317 19.282 91.544 19.1075 91.1179 19.1075C90.6353 19.1075 90.2476 19.282 89.9177 19.6503C89.607 20.0378 89.4517 20.6383 89.4517 21.4723ZM85.7082 16.5888H89.1987V18.0234C89.684 17.4229 90.128 17.0161 90.5391 16.8032C91.0794 16.5119 91.6801 16.358 92.3387 16.358C93.6378 16.358 94.6483 16.8622 95.3453 17.8502C96.0629 18.8574 96.4121 20.079 96.4121 21.5507C96.4121 23.1597 96.023 24.3992 95.249 25.2525C94.4723 26.1044 93.5044 26.5318 92.3208 26.5318C91.7393 26.5318 91.2141 26.4342 90.7508 26.2405C90.2655 26.0467 89.8393 25.7554 89.4695 25.3693V30H85.7082V16.5888ZM71.6732 21.8598L75.6092 21.6276C75.7054 22.2666 75.8827 22.7516 76.1343 23.0814C76.5605 23.6242 77.1792 23.8949 77.9751 23.8949C78.5567 23.8949 79.0227 23.7588 79.3334 23.4881C79.952 22.9454 79.974 22.1319 79.3705 21.5891C79.0598 21.2992 78.3422 21.0464 77.2383 20.7949C75.4167 20.3882 74.1176 19.8454 73.3436 19.1666C72.5668 18.4878 72.1778 17.6359 72.1778 16.5888C72.1778 15.0196 73.1882 13.798 74.5836 13.1783C75.3768 12.8293 76.4835 12.6548 77.8789 12.6548C79.6042 12.6548 80.7852 13.1192 81.522 13.6235C82.318 14.1855 83.2501 15.271 83.4027 16.6465L79.508 16.8787C79.3898 16.2783 79.1781 15.8317 78.8495 15.561C78.5195 15.2903 77.9174 15.0567 77.3166 15.0952C76.2718 15.1336 75.3026 16.3937 76.4244 17.1302C77.0087 17.5177 77.9573 17.6922 79.0048 18.022C80.1858 18.371 82.2218 18.8739 83.037 19.921C83.5993 20.6575 83.8701 21.5287 83.8509 22.2652C83.7546 25.405 81.5042 26.4122 78.4384 26.5098C76.7159 26.5483 74.7761 26.2776 73.6323 25.3473C72.7799 24.6685 71.966 23.3714 71.6732 21.8585V21.8598Z" fill="#D4D4D4"/>
</svg>
